<svg width="16" height="16" fill="none" xmlns="http://www.w3.org/2000/svg"><path d="M15.522 3.962A3.628 3.628 0 0011.906.347c-1.54 0-2.865.978-3.381 2.344H3.019V.869h-.653v1.825H.478v12.96h13.71V6.758a3.607 3.607 0 001.334-2.797zM11.906 1c1.66 0 2.997 1.303 2.963 2.962a2.973 2.973 0 01-2.963 2.963 2.973 2.973 0 01-2.962-2.962A2.973 2.973 0 0111.906 1zm-3.56 2.344a3.583 3.583 0 00.662 2.769h-7.91v-2.77h7.25zM13.535 15H1.097V6.762h8.531V6.76a3.592 3.592 0 003.906.425V15z" fill="#000"/><path d="M13.6 4.647l-1.366-.881V1.29h-.618v2.834L13.244 5.2l.356-.553zM4.222 9.369h.816v3.515h.943v-4.33h-1.76v.815zm4.428-.947c-.588 0-1.04.197-1.334.619-.294.39-.457.943-.457 1.628 0 .684.163 1.206.457 1.628.293.422.75.619 1.334.619.619 0 1.04-.197 1.334-.62.294-.39.457-.943.457-1.627 0-.685-.163-1.207-.457-1.628-.29-.422-.746-.62-1.334-.62zm.684 3.29c-.162.26-.359.391-.65.391-.293 0-.521-.131-.65-.39-.13-.26-.197-.62-.197-1.041 0-.422.066-.781.197-1.04.132-.26.325-.391.65-.391.294 0 .522.13.65.39.132.26.197.619.197 1.04 0 .423-.065.782-.197 1.042z" fill="#000"/></svg>