<svg width="20" height="21" fill="none" xmlns="http://www.w3.org/2000/svg"><path d="M19.703 4.614a7.773 7.773 0 01-2.23.61 3.892 3.892 0 001.707-2.148 7.75 7.75 0 01-2.465.942A3.883 3.883 0 0010.1 7.559a11.024 11.024 0 01-8.002-4.056A3.883 3.883 0 003.3 8.686 3.872 3.872 0 011.542 8.2v.05a3.883 3.883 0 003.114 3.807 3.91 3.91 0 01-1.753.067 3.885 3.885 0 003.626 2.695 7.79 7.79 0 01-5.748 1.608 10.98 10.98 0 005.95 1.744c7.142 0 11.046-5.915 11.046-11.045 0-.167-.005-.335-.012-.502a7.893 7.893 0 001.936-2.008l.002-.002z" fill="#fff"/></svg>