<svg width="150" height="67" fill="none" xmlns="http://www.w3.org/2000/svg"><g clip-path="url(#clip0)"><path d="M33.837 67L10 57.28 0 33.674 9.767 9.952 33.488 0l23.838 9.72 10 23.606-9.768 23.722L33.838 67z" fill="#FFFEF2"/><path d="M33.837 67L10 57.28 0 33.674 9.767 9.952 33.488 0l23.838 9.72 10 23.606-9.768 23.722L33.838 67zM12.21 55.081l21.628 8.795L55.35 54.85l8.837-21.524-9.07-21.407-21.628-8.795-21.511 9.026L3.14 33.674l9.07 21.407z" fill="#5A2F28"/><path d="M32.558 57.858C19.07 57.279 8.605 45.823 9.186 32.4 9.767 18.977 21.279 8.563 34.767 9.141 48.256 9.72 58.721 21.176 58.14 34.6c-.58 13.423-12.093 23.838-25.58 23.259zm2.093-45.824c-11.86-.463-21.977 8.679-22.558 20.482-.465 11.803 8.72 21.87 20.581 22.449 11.86.463 21.977-8.679 22.559-20.482.465-11.803-8.721-21.87-20.582-22.449z" fill="#5A2F28"/><path d="M40.349 20.135h6.628l-10.35 30.318h-6.046L20.35 20.135h6.86l6.512 23.027 6.628-23.027z" fill="#5A2F28"/><path d="M81.163 17.936v.695h-.465v-.695c-1.396 0-2.21-.925-2.21-2.314s.814-2.314 2.21-2.314v-.463h.465v.463c1.395 0 2.21.81 2.21 2.314 0 1.389-.815 2.314-2.21 2.314zm-.465-4.281c-1.28 0-1.86.81-1.86 1.967s.58 1.851 1.86 1.851v-3.818zm.465 0v3.818c1.163 0 1.86-.81 1.86-1.851 0-1.157-.581-1.967-1.86-1.967zm6.395 4.975v-5.785h3.488v.347h-3.023v2.314h2.675v.347h-2.675v2.315h3.023v.347h-3.488v.116zm12.093 1.505V18.63h-4.186v1.504H95v-1.967h.581c.582-1.273.698-2.199.698-4.629v-.694h3.023v5.438H100v1.968h-.349v-.116zm-.697-6.943h-2.21v.81c0 2.314-.232 2.893-.698 4.166h2.907v-4.976zm5.348 5.438v-5.785h3.489v.347h-3.024v2.314h2.675v.347h-2.675v2.315h3.024v.347h-3.489v.116zm10.117-2.43h-1.745v2.43h-.465v-5.785h2.093c1.047 0 1.745.694 1.745 1.62.116 1.041-.582 1.736-1.628 1.736zm-.117-3.008h-1.628v2.546h1.628c.814 0 1.396-.463 1.396-1.273 0-.81-.465-1.273-1.396-1.273zm8.954 5.438l-.465-1.388h-2.675l-.465 1.389h-.465l2.093-5.786h.349l2.093 5.786h-.465zm-1.744-5.207l-1.163 3.356h2.442l-1.279-3.356zm10.581 6.712V18.63h-4.186v-5.786h.465v5.438h3.023v-5.438h.465v5.438h.698v1.968h-.465v-.116zm8.256-1.505v-4.975l-3.14 4.976h-.465v-5.786h.465v4.975l3.14-4.975h.465v5.786h-.465zm8.023 0V16.2h-1.628l-1.395 2.43h-.465l1.395-2.545c-.814-.116-1.279-.81-1.279-1.62 0-1.042.698-1.62 1.744-1.62h2.093v5.786h-.465zm0-5.438h-1.628c-.814 0-1.395.463-1.395 1.273 0 .81.465 1.273 1.395 1.273h1.628v-2.546zM83.954 23.49c2.441 0 4.302 1.62 4.302 4.05 0 2.315-1.744 4.05-4.302 4.05h-2.442v4.86h-2.558V23.49h5zm-.117 5.786c1.163 0 1.86-.694 1.86-1.736 0-1.041-.697-1.735-1.86-1.735h-2.325v3.587h2.325v-.116zm10.117 4.975c-.466 1.158-1.396 2.199-2.907 2.199h-1.512v-2.199h1.046c.698 0 1.163-.347 1.396-.81l.349-.925-4.186-8.91h2.674l2.674 6.248 2.442-6.248h2.675L93.954 34.25zm11.162 1.852a4.835 4.835 0 01-1.86.347c-1.396 0-2.675-.462-3.489-1.388-1.279-1.273-1.279-3.009-1.279-5.207v-.579c0-2.546.233-3.587 1.28-4.629.93-.925 2.092-1.388 3.488-1.388.698 0 1.395.116 1.86.347.582.231.931.463 1.628 1.157l-1.628 1.62c-.697-.694-1.162-.926-1.86-.926-.698 0-1.279.232-1.628.695-.581.694-.581 2.083-.581 3.24v.694c0 2.083.116 2.777.581 3.356.349.463.93.694 1.628.694.814 0 1.163-.231 1.86-.926l1.628 1.62c-.697.81-1.046 1.042-1.628 1.273zm9.186 0a4.835 4.835 0 01-1.86.347c-1.395 0-2.675-.462-3.488-1.388-1.28-1.273-1.28-3.009-1.28-5.207v-.579c0-2.546.233-3.587 1.28-4.629.93-.925 2.093-1.388 3.488-1.388.698 0 1.395.116 1.86.347.582.231.931.463 1.628 1.157l-1.628 1.62c-.697-.694-1.162-.926-1.86-.926-.698 0-1.279.232-1.628.695-.581.694-.581 2.083-.581 3.24v.694c0 2.083.116 2.777.581 3.356.349.463.93.694 1.628.694.814 0 1.163-.231 1.86-.926l1.628 1.62c-.697.81-1.046 1.042-1.628 1.273zm10.349.232l-3.372-5.902-1.628 1.967v3.935h-2.558V23.49h2.558v5.67l4.535-5.67h3.14l-4.303 5.092 4.651 7.753h-3.023zm11.047 0v-8.332l-5 8.332h-2.21V23.49h2.559v8.332l5-8.332h2.209v12.96h-2.558v-.115zm11.279 0l-2.558-4.513-2.442 4.513h-2.907l4.07-6.596-3.721-6.249h2.907l2.209 4.166 2.325-4.166h2.907l-3.72 6.249 4.069 6.596h-3.139zM78.954 54.734v-12.96h2.558v10.645h3.72V41.773h2.559V52.42h3.72V41.773h2.559v12.96H78.954zm24.651 0l-.814-2.315H98.14l-.814 2.315H94.65l4.768-12.96h1.976l4.768 12.96h-2.558zm-3.14-9.142l-1.628 4.745h3.256l-1.628-4.745zm13.721 9.142l-2.558-4.513-2.442 4.513h-2.907l4.07-6.596-3.721-6.248h2.907l2.209 4.165 2.326-4.165h2.907l-3.721 6.248 4.07 6.596h-3.14zm13.256 0v-7.522L125 52.072h-1.744l-2.442-4.86v7.522h-2.558v-12.96h2.442l3.372 6.942 3.372-6.943h2.442v12.96h-2.442zm12.209 0l-.814-2.315h-4.651l-.814 2.315h-2.674l4.767-12.96h1.977l4.767 12.96h-2.558zm-3.023-9.142L135 50.337h3.256l-1.628-4.745zm9.884-1.62v10.646h-2.559V43.972h-3.372v-2.199h9.303v2.2h-3.372z" fill="#fff"/></g><defs><clipPath id="clip0"><path fill="#fff" d="M0 0h150v67H0z"/></clipPath></defs></svg>