<svg width="25" height="25" fill="none" xmlns="http://www.w3.org/2000/svg"><path d="M22.478 7.14c.146-.484 0-.84-.69-.84h-2.284c-.581 0-.847.308-.992.646 0 0-1.162 2.832-2.808 4.668-.531.535-.774.703-1.063.703-.145 0-.356-.168-.356-.653V7.14c0-.58-.167-.84-.652-.84h-3.59c-.362 0-.58.27-.58.526 0 .55.822.677.907 2.227v3.362c0 .737-.132.871-.424.871-.774 0-2.657-2.842-3.775-6.097-.218-.632-.438-.887-1.021-.887H2.867c-.653 0-.784.307-.784.645 0 .606.774 3.606 3.606 7.574 1.887 2.709 4.544 4.178 6.965 4.178 1.451 0 1.63-.326 1.63-.889v-2.048c0-.652.139-.783.598-.783.338 0 .92.17 2.274 1.476 1.548 1.548 1.804 2.243 2.674 2.243h2.284c.652 0 .978-.326.79-.97-.205-.64-.945-1.573-1.926-2.676-.533-.63-1.33-1.306-1.573-1.645-.338-.436-.24-.63 0-1.017.001.001 2.784-3.917 3.073-5.25z" fill="#fff"/></svg>