<svg width="80" height="79" fill="none" xmlns="http://www.w3.org/2000/svg"><g clip-path="url(#clip0)"><path d="M44.494 51.684c12.792-9 15.9-26.716 6.942-39.57C42.478-.737 24.848-3.86 12.056 5.14c-12.791 9-15.899 26.716-6.941 39.57 8.957 12.853 26.588 15.976 39.38 6.975z" fill="#F9F9F9"/><path d="M75.862 63.755H34.483a2.773 2.773 0 01-2.758-2.773V8.317a2.773 2.773 0 012.758-2.772h33.104L78.62 16.632v44.35a2.773 2.773 0 01-2.758 2.773z" fill="#F9F9F9"/><path d="M66.207 5.544v12.474h12.414L66.207 5.544z" fill="#F9F9F9"/><path d="M75.862 63.755H34.483a2.773 2.773 0 01-2.758-2.773V8.317a2.773 2.773 0 012.758-2.772h33.104L78.62 16.632v44.35a2.773 2.773 0 01-2.758 2.773z" stroke="#5A2F28" stroke-width="1.5" stroke-miterlimit="10"/><path d="M74.483 18.018h-8.276V9.702" stroke="#5A2F28" stroke-width="1.5" stroke-miterlimit="10"/><path d="M38.62 34.65l4.139 4.157 4.138-4.158v-4.158L36.552 20.097l4.827-4.851c-2.62-2.633-6.896-4.158-11.034-4.158-9.931 0-17.931 8.039-17.931 18.017v16.632l4.138 4.158v11.088h-2.759a2.773 2.773 0 00-2.759 2.772v4.157H9.655a2.773 2.773 0 00-2.759 2.772v6.93h40v-6.93a2.773 2.773 0 00-2.758-2.772h-1.38v-4.157A2.773 2.773 0 0040 60.983h-2.76v-5.544l5.518-5.544-9.656-9.702V34.65h5.518z" fill="#F9F9F9"/><path d="M11.034 67.912v-4.158a2.773 2.773 0 012.759-2.772h9.655m9.655 0H40a2.773 2.773 0 012.759 2.772v4.158" stroke="#5A2F28" stroke-width="1.5" stroke-miterlimit="10"/><path d="M26.207 67.912H9.655a2.773 2.773 0 00-2.759 2.772v6.93h40v-6.93a2.773 2.773 0 00-2.758-2.772h-8.276m-6.896 0h2.758m-5.517-6.93h2.759m4.137-26.332v5.543l9.656 9.702-5.518 5.544v5.544" stroke="#5A2F28" stroke-width="1.5" stroke-miterlimit="10"/><path d="M34.482 18.018L46.896 30.49v4.158l-4.138 4.158-4.138-4.158h-8.276c-3.034 0-5.517-2.495-5.517-5.544" stroke="#5A2F28" stroke-width="1.5" stroke-miterlimit="10"/><path d="M16.552 59.597v-9.702l-4.138-4.158V29.105c0-9.979 8-18.017 17.931-18.017 4.138 0 8.414 1.525 11.035 4.158l-4.138 4.158" stroke="#5A2F28" stroke-width="1.5" stroke-miterlimit="10"/><path d="M28.966 16.632c-6.069 0-11.034 4.99-11.034 11.087v5.544m38.62-5.543h13.793m-19.31 0h2.759m2.758 5.543h13.793m-19.31 0h2.759m2.758 5.544h13.793m-19.31 0h2.759m2.758 5.544h13.793m-19.31 0h2.759m2.758 5.544h13.793m-19.31 0h2.759" stroke="#5A2F28" stroke-width="1.5" stroke-miterlimit="10"/></g><defs><clipPath id="clip0"><path fill="#fff" d="M0 0h80v79H0z"/></clipPath></defs></svg>