<svg width="50" height="50" fill="none" xmlns="http://www.w3.org/2000/svg"><g opacity=".75" fill-rule="evenodd" clip-rule="evenodd" fill="#fff"><path d="M25.073 14.583c-8.431 0-14.75 4.738-18.1 8.53a2.822 2.822 0 000 3.774c3.35 3.792 9.669 8.53 18.1 8.53 8.43 0 14.748-4.738 18.098-8.53a2.822 2.822 0 000-3.774c-3.35-3.792-9.668-8.53-18.098-8.53zm-19.66 7.15c3.583-4.056 10.425-9.233 19.66-9.233s16.076 5.177 19.66 9.233a4.906 4.906 0 010 6.534c-3.584 4.056-10.425 9.233-19.66 9.233-9.236 0-16.077-5.177-19.66-9.233a4.905 4.905 0 010-6.534z"/><path d="M29.24 25a4.166 4.166 0 11-3.068-4.02 3.139 3.139 0 011.32-1.745 6.25 6.25 0 103.779 4.95c-.54.49-1.25.797-2.031.815z"/><path d="M25 14.583c-5.753 0-10.417 4.664-10.417 10.417S19.247 35.417 25 35.417 35.417 30.753 35.417 25 30.753 14.583 25 14.583zM12.5 25c0-6.903 5.597-12.5 12.5-12.5S37.5 18.097 37.5 25 31.903 37.5 25 37.5 12.5 31.903 12.5 25z"/><path d="M29.167 22.917a1.042 1.042 0 100-2.084 1.042 1.042 0 000 2.084zm0 2.083a3.125 3.125 0 100-6.25 3.125 3.125 0 000 6.25z"/></g></svg>