<svg width="76" height="67" fill="none" xmlns="http://www.w3.org/2000/svg"><g clip-path="url(#clip0)" stroke="#5A2F28" stroke-width="1.5" stroke-miterlimit="10" stroke-linecap="round" stroke-linejoin="round"><path d="M18.32 45.172s0 .05-.049.196c-.049.294.194 2.545 2.332 3.084 1.944.44 17.251-9.348 22.985-13.215l.68-.44c.778-.538 3.84-3.132 8.018-4.65 3.84-1.419 7.435-3.425 10.448-6.215l.097-.098a10.855 10.855 0 016.755-2.887l5.636-.196M19.826 39.495l-1.603-19.87 5.977-.93c1.846-.293 3.693-.293 5.54-.097l.582.049a4.165 4.165 0 013.548 3.083"/><path d="M75.271.734l-10.69.147s-.632 0-1.75.049c-6.706.245-30.662 1.174-36.347 3.279l-15.696 8.81a3.817 3.817 0 00-2.041 2.3l-.632 1.712c-.243.637-.291 1.322-.194 2.007 0 0 4.082 14.927 6.706 21.926m48.253-17.13s4.373-4.943 3.887-8.467m-48.495 4.258h-2.77m9.815-1.076L24.248 35.58m7.386-16.591l-2.527 12.04m-2.574-26.82s-1.896 1.81-.778 3.573M8.796 15.27s1.506.195 2.09.587m7.434 29.315c.68-.832 2.333-2.838 3.645-3.817.631-.44 1.458-.49 2.09-.049.582.392 1.311.93 1.749 1.664.437.734.291 1.713-.34 2.3l-3.11 2.79"/><path d="M33.919 21.73s.729 2.349.486 3.866c-.195 1.126-1.75 2.936-3.256 5.188-1.36 2.006-4.762 5.09-6.706 7.047-.292.294-.583.636-.875.93l-4.47 5.481"/><path d="M39.215 40.964h6.365v25.302H.73V40.963h18.32"/><path d="M24.879 62.791h16.23V44.39h-5.054m-22.741 0H5.2v18.4h8.115"/></g><defs><clipPath id="clip0"><path fill="#fff" d="M0 0h76v67H0z"/></clipPath></defs></svg>