<svg width="133" height="80" fill="none" xmlns="http://www.w3.org/2000/svg"><path fill-rule="evenodd" clip-rule="evenodd" d="M66.23 7.083c-26.643 0-46.61 14.97-57.192 26.953a8.917 8.917 0 000 11.928c10.585 11.982 30.55 26.953 57.192 26.953 26.64 0 46.604-14.97 57.19-26.953a8.918 8.918 0 000-11.928C112.834 22.053 92.87 7.082 66.23 7.082zM4.103 29.677C15.427 16.86 37.046.5 66.23.5c29.184 0 50.801 16.36 62.124 29.177a15.5 15.5 0 010 20.646C117.031 63.14 95.414 79.5 66.23 79.5c-29.184 0-50.803-16.36-62.127-29.177a15.5 15.5 0 010-20.646z" fill="#fff"/><path fill-rule="evenodd" clip-rule="evenodd" d="M79.399 40a13.167 13.167 0 11-9.694-12.707 9.918 9.918 0 014.174-5.51 19.75 19.75 0 1011.939 15.642A9.85 9.85 0 0179.398 40z" fill="#fff"/><path fill-rule="evenodd" clip-rule="evenodd" d="M66 7.083C47.82 7.083 33.083 21.82 33.083 40S47.82 72.917 66 72.917 98.917 58.18 98.917 40 84.18 7.083 66 7.083zM26.5 40C26.5 18.186 44.186.5 66 .5s39.5 17.686 39.5 39.5S87.814 79.5 66 79.5 26.5 61.814 26.5 40z" fill="#fff"/><path fill-rule="evenodd" clip-rule="evenodd" d="M79.166 33.417a3.292 3.292 0 100-6.584 3.292 3.292 0 000 6.584zm0 6.583a9.875 9.875 0 100-19.75 9.875 9.875 0 000 19.75z" fill="#fff"/></svg>