<svg width="50" height="50" fill="none" xmlns="http://www.w3.org/2000/svg"><path d="M37.656 3.237L46.35 12.3v34.463H13.873v.112h32.588v-34.46l-8.805-9.178z" fill="#909090"/><path d="M37.549 3.125H13.763v43.638H46.35V12.302l-8.803-9.177" fill="#F4F4F4"/><path d="M13.523 5.469H3.54v10.667h31.406V5.469H13.523z" fill="#7A7B7C"/><path d="M35.112 15.955H3.742V5.28h31.37v10.675z" fill="#5A2F28"/><path d="M14.144 7.084h-2.042v7.5h1.606v-2.53l.354.021a3.194 3.194 0 001.011-.183c.285-.098.547-.252.77-.454.228-.193.407-.436.524-.71.157-.455.213-.94.164-1.419a3.492 3.492 0 00-.178-1.006 1.832 1.832 0 00-1.073-1.016 3.486 3.486 0 00-1.137-.203zm-.297 3.585h-.14V8.356h.302a.89.89 0 01.718.283c.188.252.288.558.285.872 0 .384 0 .733-.346.978-.25.137-.535.2-.82.178m5.737-3.603c-.174 0-.342.013-.461.017l-.372.01h-1.219v7.5h1.435a4.18 4.18 0 001.606-.274 2.673 2.673 0 001.062-.767 3.03 3.03 0 00.583-1.17c.123-.485.183-.983.178-1.483a6.903 6.903 0 00-.136-1.761 2.777 2.777 0 00-.625-1.145 2.547 2.547 0 00-.836-.625 3.768 3.768 0 00-.857-.278 2.003 2.003 0 00-.357-.027l-.001.003zm-.283 6.149h-.156V8.425h.02a1.66 1.66 0 01.938.167c.212.17.384.383.506.625.131.255.207.536.222.822.014.344 0 .625 0 .858a4.57 4.57 0 01-.052.801 2.744 2.744 0 01-.264.782 1.77 1.77 0 01-.567.562 1.051 1.051 0 01-.65.166m7.937-6.118h-3.797v7.5h1.607v-2.974h2.031v-1.394h-2.031V8.484h2.187V7.091" fill="#464648"/><path d="M34.033 31.648s4.981-.903 4.981.799c0 1.701-3.086 1.01-4.98-.799zm-3.683.13c-.791.175-1.562.431-2.301.764l.625-1.406c.625-1.406 1.273-3.323 1.273-3.323a22.211 22.211 0 002.59 3.518c-.736.11-1.466.26-2.187.45v-.003zm-1.972-10.156c0-1.483.48-1.888.854-1.888.373 0 .793.18.807 1.467a16.855 16.855 0 01-.808 3.804 6.916 6.916 0 01-.854-3.378l.001-.005zm-7.264 16.431c-1.528-.914 3.205-3.728 4.063-3.819-.005.002-2.463 4.775-4.063 3.82zm19.355-5.405c-.016-.156-.156-1.886-3.234-1.812-1.283-.02-2.566.07-3.833.27a19.596 19.596 0 01-3.144-4.148c.541-1.564.869-3.193.974-4.844-.046-1.875-.494-2.95-1.932-2.934-1.437.015-1.647 1.273-1.458 3.145a14.547 14.547 0 001.04 3.653s-.665 2.067-1.543 4.123c-.878 2.057-1.478 3.135-1.478 3.135a15.033 15.033 0 00-4.258 2.187c-1.287 1.199-1.81 2.12-1.132 3.04.584.793 2.63.973 4.457-1.422a35.244 35.244 0 002.657-3.894s2.787-.764 3.654-.974c.867-.209 1.916-.375 1.916-.375s2.545 2.561 5 2.47c2.455-.09 2.336-1.466 2.32-1.616" fill="#5A2F28"/><path d="M37.428 3.245v9.177h8.802l-8.802-9.177z" fill="#909090"/><path d="M37.548 3.125v9.177h8.802l-8.802-9.177z" fill="#F4F4F4"/><path d="M14.024 6.964H11.98v7.5h1.613v-2.528l.356.02a3.188 3.188 0 001.011-.183 2.23 2.23 0 00.77-.454c.226-.193.404-.436.52-.71a3.33 3.33 0 00.163-1.418 3.495 3.495 0 00-.178-1.007 1.832 1.832 0 00-1.073-1.015 3.356 3.356 0 00-1.14-.205zm-.297 3.584h-.14V8.236h.304a.89.89 0 01.717.283c.188.251.288.558.286.872 0 .384 0 .732-.347.978-.25.137-.534.2-.819.178m5.734-3.603c-.173 0-.342.012-.46.017l-.368.01h-1.218v7.5h1.434a4.182 4.182 0 001.606-.274 2.67 2.67 0 001.063-.767 3.03 3.03 0 00.583-1.17 5.89 5.89 0 00.178-1.483 6.898 6.898 0 00-.136-1.761 2.776 2.776 0 00-.625-1.146 2.547 2.547 0 00-.836-.625 3.771 3.771 0 00-.858-.278 2.003 2.003 0 00-.356-.026l-.007.003zm-.278 6.148h-.156V8.305h.02a1.66 1.66 0 01.938.167c.212.17.384.382.506.625.131.255.207.535.222.822.014.343 0 .625 0 .857a4.48 4.48 0 01-.052.802 2.744 2.744 0 01-.264.781 1.753 1.753 0 01-.567.563 1.052 1.052 0 01-.65.165m7.933-6.117h-3.797v7.5h1.607v-2.975h2.03v-1.393h-2.03V8.364h2.187V6.97" fill="#fff"/></svg>