<svg width="85" height="52" fill="none" xmlns="http://www.w3.org/2000/svg"><g clip-path="url(#clip0)" stroke="#5A2F28" stroke-width="1.5" stroke-miterlimit="10" stroke-linecap="round" stroke-linejoin="round"><path d="M62.23 8.953l-2.397 1.015c-.4.176-.843.176-1.243.088l-4.705-1.367c-.577-.177-1.11-.353-1.686-.53-2.087-.705-10.786-3.175-16.69 2.117l-.932 1.191a28.022 28.022 0 01-4.527 4.631c-.71.53-1.42 1.191-2.13 1.853-1.599 1.543-.622 4.322 1.597 4.498 1.953.133 4.439-.485 7.058-3.22 0 0 3.373-3.704 6.79-2.645 0 0 18.244 7.806 21.44 15.877l5.592-4.542M14.293 29.11c.222.176 6.658 4.278 8.345 5.733m1.065-25.096l2.397.838c2.974 1.059 6.303 1.015 9.144-.353.221-.088.444-.22.665-.352"/><path d="M64.805 32.461c1.065 1.765.932 3.97-.31 5.514-1.11 1.367-2.886 2.028-4.661 1.764.044.132.621 2.16-.8 3.837-.931 1.147-2.44 1.676-3.905 1.411 0 .309-.045 1.853-1.332 3.044-1.11 1.014-2.752 1.323-4.305.793-.133.31-.8 1.72-2.486 2.382-1.51.573-3.462-.22-4.439-.75"/><path d="M37.463 50.368c.977.838 2.308 1.191 3.551.838h.044c1.51-.44 3.551-2.25 3.152-3.881-.267-1.059-1.465-1.808-2.93-2.029.045-.265.267-1.411-.444-2.558-1.02-1.632-3.062-1.588-3.151-1.588.044-.397.044-1.367-.533-2.381-1.065-1.765-3.151-1.941-3.373-1.941.843-4.014-5.016-3.97-7.679-3.705-.932.088-1.909.397-2.663.97-1.287.97-1.376 1.985-.977 3.132.311.882 11.408 10.144 15.003 13.143z"/><path d="M33.78 36.828c-1.776.617-3.951 1.146-6.481 1.455-1.332.177-2.53.22-3.64.22m4.615 4.103c1.066 0 2.175-.089 3.418-.221a28.776 28.776 0 005.992-1.323m3.552 4.19a33.641 33.641 0 01-5.415 1.5c-.8.132-1.598.264-2.308.352M22.992 6.395c1.021.485 1.465 1.72.977 2.779l-.267.573-9.41 19.362-.133.31c-.488 1.058-1.775 1.499-2.84.97l-9.455-4.543a2.07 2.07 0 01-.976-2.823l9.81-20.2c.487-1.059 1.775-1.5 2.84-.97l9.454 4.542zM83.047 25.36l-9.676 4.102a2.176 2.176 0 01-2.796-1.102l-.134-.31-.044-.131-8.211-18.966-.267-.661-.266-.618c-.444-1.058.044-2.293 1.11-2.734L72.439.794a2.176 2.176 0 012.796 1.102l8.877 20.642a2.129 2.129 0 01-1.065 2.822z"/></g><defs><clipPath id="clip0"><path fill="#fff" d="M0 0h85v52H0z"/></clipPath></defs></svg>