<svg width="75" height="65" fill="none" xmlns="http://www.w3.org/2000/svg"><g clip-path="url(#clip0)" stroke="#5A2F28" stroke-width="1.5" stroke-miterlimit="10" stroke-linecap="round" stroke-linejoin="round"><path d="M54.185 45.946h12.37m-12.37 4.928h12.37m0 4.974h-12.37m13.74 8.448H46.014v-38.53h28.302v32.053"/><path d="M68.016 31.632h-15.52v6.664h15.52v-6.664z"/><path d="M42.224 59.415H3.56c-1.597 0-2.875-1.314-2.875-2.956V17.13c0-1.643 1.278-2.957 2.875-2.957h58.385c1.597 0 2.875 1.314 2.875 2.957v5.069"/><path d="M27.982 36.184H16.114c-2.648 0-5.204-.75-7.441-2.206L.685 28.91m42.909 7.274h-5.569m0 2.581c0 2.535-1.963 4.553-4.428 4.553h-1.05c-2.465 0-4.428-2.018-4.428-4.553v-.14m.001 0v-7.462h9.905v7.602M17.164 14.173v-2.018C17.164 5.82 22.185.704 28.302.704h8.902c6.162 0 11.138 5.162 11.138 11.451v2.018"/><path d="M43.64 8.635c-1.233-2.346-3.652-3.989-6.437-3.989h-8.9c-3.014 0-5.616 1.878-6.711 4.553M74.316 57.82h-6.391v6.476l6.39-6.476z"/></g><defs><clipPath id="clip0"><path fill="#fff" d="M0 0h75v65H0z"/></clipPath></defs></svg>