<svg width="15" height="17" fill="none" xmlns="http://www.w3.org/2000/svg"><path fill-rule="evenodd" clip-rule="evenodd" d="M7.208.667c3.79 0 6.875 3.107 6.875 6.927 0 4.696-5.38 9.323-6.875 9.323S.333 12.29.333 7.594c0-3.82 3.084-6.927 6.875-6.927zm0 1.25c-3.102 0-5.625 2.547-5.625 5.677 0 3.983 4.687 7.863 5.625 8.07.938-.208 5.625-4.088 5.625-8.07 0-3.13-2.523-5.677-5.625-5.677zm0 2.916a2.712 2.712 0 012.71 2.71 2.71 2.71 0 01-2.71 2.707 2.71 2.71 0 01-2.707-2.707 2.712 2.712 0 012.708-2.71zm0 1.25a1.46 1.46 0 101.458 1.46 1.46 1.46 0 00-1.457-1.46z" fill="#fff"/></svg>