<svg width="76" height="77" fill="none" xmlns="http://www.w3.org/2000/svg"><path d="M74.643 63.086V46.74a4.854 4.854 0 00-4.886-4.863H66.5c-.678 0-1.493.27-1.9.81l-5.157 5.404-5.157-7.565H21.715l-5.022 7.565-5.157-5.403c-.543-.54-1.221-.81-2.036-.81H6.243a4.854 4.854 0 00-4.886 4.862v16.481c0 1.891.95 3.647 2.308 4.863l-2.308 3.512v4.053h73.286v-4.053l-2.307-3.647c1.357-1.216 2.307-2.972 2.307-4.863zm-25.785-22.56v-5.673c0-4.323-7.6-6.485-11.536-6.485s-11.536 2.297-11.536 6.485v5.673" fill="#F9F9F9"/><path d="M48.858 40.526v-5.673c0-4.323-7.6-6.485-11.536-6.485s-11.536 2.297-11.536 6.485v5.673m45.6 28.234c1.9-1.216 3.257-3.242 3.257-5.674V46.74a4.854 4.854 0 00-4.885-4.863H66.5c-.679 0-1.493.27-1.9.81l-7.193 7.296h-7.872s-.678 5.403 4.479 5.403h7.871l6.65-6.754" stroke="#5A2F28" stroke-width="1.5" stroke-miterlimit="10"/><path d="M66.5 37.825c2.986 0 5.428-2.567 5.428-5.81v-1.89c0-3.242-2.442-5.81-5.428-5.81-2.986 0-5.429 2.567-5.429 5.81v1.89c0 3.243 2.443 5.81 5.429 5.81z" fill="#F9F9F9" stroke="#5A2F28" stroke-width="1.5" stroke-miterlimit="10"/><path d="M4.615 68.76c-1.9-1.216-3.258-3.242-3.258-5.674V46.74a4.854 4.854 0 014.886-4.863H9.5c.679 0 1.493.27 1.9.81l7.057 7.296h7.872s.678 5.403-4.479 5.403h-7.87l-6.65-6.754" stroke="#5A2F28" stroke-width="1.5" stroke-miterlimit="10"/><path d="M10.722 56.737l-9.365 14.86v4.052h73.286v-4.052l-9.364-14.86m-48.993-8.105l5.429-8.106h32.571l5.429 8.105" stroke="#5A2F28" stroke-width="1.5" stroke-miterlimit="10"/><path d="M9.5 37.825c-2.986 0-5.429-2.567-5.429-5.81v-1.89c0-3.242 2.443-5.81 5.429-5.81s5.428 2.567 5.428 5.81v1.89c0 3.243-2.442 5.81-5.428 5.81zM38 24.316c2.986 0 5.428-2.567 5.428-5.809v-1.891c0-3.242-2.442-5.809-5.428-5.809-2.986 0-5.429 2.567-5.429 5.809v1.891c0 3.242 2.443 5.809 5.429 5.809z" fill="#F9F9F9" stroke="#5A2F28" stroke-width="1.5" stroke-miterlimit="10"/></svg>