<svg width="26" height="25" fill="none" xmlns="http://www.w3.org/2000/svg"><g clip-path="url(#clip0)"><path d="M24.98 6.778a2.903 2.903 0 00-.799-1.323 3.178 3.178 0 00-1.393-.773c-1.957-.515-9.794-.515-9.794-.515a79.815 79.815 0 00-9.781.49 3.292 3.292 0 00-1.394.791c-.386.37-.665.828-.81 1.33A30.302 30.302 0 00.5 12.5a30.246 30.246 0 00.508 5.723c.143.499.421.954.808 1.322.386.368.867.633 1.397.774 1.982.515 9.78.515 9.78.515a80.006 80.006 0 009.795-.49 3.179 3.179 0 001.393-.773c.386-.368.66-.825.797-1.323.36-1.887.534-3.804.522-5.724a27.683 27.683 0 00-.52-5.747v.001zm-14.478 9.289V8.934l6.52 3.567-6.52 3.566z" fill="#E2131E"/></g><defs><clipPath id="clip0"><path fill="#fff" transform="translate(.5)" d="M0 0h25v25H0z"/></clipPath></defs></svg>