<svg width="50" height="50" fill="none" xmlns="http://www.w3.org/2000/svg"><path d="M44.956 14.282c.292-.969 0-1.68-1.379-1.68h-4.569c-1.162 0-1.693.615-1.985 1.29 0 0-2.323 5.665-5.615 9.338-1.062 1.068-1.548 1.406-2.127 1.406-.29 0-.71-.338-.71-1.306v-9.048c0-1.163-.336-1.68-1.304-1.68h-7.18c-.724 0-1.162.538-1.162 1.05 0 1.1 1.646 1.355 1.815 4.455v6.725c0 1.473-.265 1.741-.848 1.741-1.548 0-5.315-5.685-7.55-12.193-.436-1.265-.875-1.775-2.042-1.775H5.733c-1.306 0-1.566.614-1.566 1.29 0 1.212 1.548 7.212 7.21 15.147 3.775 5.419 9.09 8.356 13.931 8.356 2.902 0 3.26-.652 3.26-1.777v-4.096c0-1.304.278-1.566 1.197-1.566.675 0 1.837.341 4.548 2.952 3.095 3.096 3.608 4.485 5.347 4.485h4.567c1.304 0 1.956-.652 1.581-1.94-.41-1.28-1.89-3.145-3.852-5.351-1.066-1.259-2.66-2.613-3.146-3.29-.677-.873-.48-1.258 0-2.033.003.002 5.567-7.836 6.146-10.5z" fill="#2683ED"/></svg>