<svg width="26" height="25" fill="none" xmlns="http://www.w3.org/2000/svg"><g clip-path="url(#clip0)"><path d="M25.128 5.143a9.717 9.717 0 01-2.786.763 4.865 4.865 0 002.133-2.685 9.687 9.687 0 01-3.081 1.177 4.854 4.854 0 00-8.269 4.427A13.78 13.78 0 013.123 3.754a4.85 4.85 0 00-.656 2.44 4.854 4.854 0 002.158 4.04 4.84 4.84 0 01-2.198-.608v.062a4.854 4.854 0 003.893 4.759 4.887 4.887 0 01-2.192.083 4.855 4.855 0 004.533 3.37 9.737 9.737 0 01-6.027 2.078c-.387 0-.773-.023-1.158-.068a13.723 13.723 0 007.438 2.18c8.927 0 13.807-7.393 13.807-13.806 0-.208-.005-.419-.015-.627a9.867 9.867 0 002.42-2.51l.002-.003z" fill="#32AADC"/></g><defs><clipPath id="clip0"><path fill="#fff" transform="translate(.5)" d="M0 0h25v25H0z"/></clipPath></defs></svg>