<svg width="16" height="16" viewBox="0 0 16 16" fill="none" xmlns="http://www.w3.org/2000/svg">
<path d="M15.5219 3.9625C15.5219 1.975 13.8938 0.346874 11.9063 0.346874C10.3657 0.346874 9.04065 1.325 8.52503 2.69062H3.01877V0.868749H2.36565V2.69375H0.478149V15.6531H14.1875V6.75937C15 6.09687 15.5219 5.0875 15.5219 3.9625V3.9625ZM11.9063 0.999999C13.5657 0.999999 14.9032 2.30312 14.8688 3.9625C14.8688 5.59062 13.5344 6.925 11.9063 6.925C10.2782 6.925 8.94378 5.59062 8.94378 3.9625C8.94378 2.33437 10.2782 0.999999 11.9063 0.999999ZM8.3469 3.34375C8.31253 3.54375 8.29378 3.75312 8.29378 3.9625C8.29378 4.76562 8.5594 5.50937 9.0094 6.1125H1.0969V3.34375H8.3469ZM13.5344 15H1.0969V6.7625H9.62815V6.75937C10.25 7.26875 11.0469 7.575 11.9063 7.575C12.4907 7.575 13.0438 7.43437 13.5344 7.18437V15Z" fill="black"/>
<path d="M13.6 4.64687L12.2344 3.76562V1.29062H11.6157V4.125L13.2438 5.2L13.6 4.64687Z" fill="black"/>
<path d="M4.22192 9.36875H5.03755V12.8844H5.9813V8.55312H4.22192V9.36875Z" fill="black"/>
<path d="M8.65 8.42187C8.0625 8.42187 7.60938 8.61875 7.31563 9.04062C7.02188 9.43125 6.85938 9.98437 6.85938 10.6687C6.85938 11.3531 7.02188 11.875 7.31563 12.2969C7.60938 12.7187 8.06562 12.9156 8.65 12.9156C9.26875 12.9156 9.69063 12.7187 9.98438 12.2969C10.2781 11.9062 10.4406 11.3531 10.4406 10.6687C10.4406 9.98437 10.2781 9.4625 9.98438 9.04062C9.69375 8.61875 9.2375 8.42187 8.65 8.42187ZM9.33438 11.7125C9.17188 11.9719 8.975 12.1031 8.68437 12.1031C8.39062 12.1031 8.1625 11.9719 8.03438 11.7125C7.90313 11.4531 7.8375 11.0937 7.8375 10.6719C7.8375 10.25 7.90313 9.89062 8.03438 9.63125C8.16563 9.37187 8.35937 9.24062 8.68437 9.24062C8.97812 9.24062 9.20625 9.37187 9.33438 9.63125C9.46563 9.89062 9.53125 10.25 9.53125 10.6719C9.53125 11.0937 9.46563 11.4531 9.33438 11.7125Z" fill="black"/>
</svg>
