<svg width="20" height="21" viewBox="0 0 20 21" fill="none" xmlns="http://www.w3.org/2000/svg">
<g clip-path="url(#clip0)">
<path d="M19.5833 5.9224C19.4701 5.51843 19.2495 5.15269 18.945 4.86407C18.6319 4.56657 18.2482 4.35376 17.83 4.24573C16.265 3.83323 9.995 3.83323 9.995 3.83323C7.3811 3.80349 4.76785 3.9343 2.17 4.2249C1.75182 4.34091 1.3688 4.55847 1.055 4.85823C0.746662 5.1549 0.523329 5.52073 0.406662 5.92157C0.126406 7.43135 -0.00976113 8.96435 -4.47955e-06 10.4999C-0.0100045 12.0341 0.125829 13.5666 0.406662 15.0782C0.520829 15.4774 0.743329 15.8416 1.0525 16.1357C1.36166 16.4299 1.74666 16.6424 2.17 16.7549C3.75583 17.1666 9.995 17.1666 9.995 17.1666C12.6122 17.1963 15.2288 17.0655 17.83 16.7749C18.2482 16.6669 18.6319 16.4541 18.945 16.1566C19.2533 15.8624 19.4725 15.4966 19.5825 15.0982C19.8701 13.589 20.0099 12.0554 20 10.5191C20.0216 8.97624 19.882 7.43537 19.5833 5.92157V5.9224ZM8.00166 13.3532V7.6474L13.2183 10.5007L8.00166 13.3532Z" fill="white"/>
</g>
<defs>
<clipPath id="clip0">
<rect width="20" height="20" fill="white" transform="translate(0 0.5)"/>
</clipPath>
</defs>
</svg>
