<svg width="20" height="21" viewBox="0 0 20 21" fill="none" xmlns="http://www.w3.org/2000/svg">
<path d="M19.7025 4.61366C19.0067 4.92199 18.2592 5.13033 17.4734 5.22449C18.2842 4.73932 18.8908 3.97572 19.18 3.07616C18.4182 3.52865 17.5845 3.84716 16.715 4.01783C16.1303 3.39355 15.3559 2.97977 14.512 2.84072C13.668 2.70168 12.8018 2.84515 12.0477 3.24887C11.2937 3.65259 10.694 4.29396 10.3418 5.07341C9.98963 5.85287 9.90463 6.72679 10.1 7.55949C8.55643 7.48199 7.04638 7.08079 5.66787 6.38192C4.28937 5.68304 3.07322 4.70213 2.09835 3.50283C1.76502 4.07783 1.57335 4.74449 1.57335 5.45449C1.57298 6.09366 1.73038 6.72303 2.03159 7.28677C2.33279 7.85051 2.76849 8.33119 3.30002 8.68616C2.68358 8.66655 2.08075 8.49998 1.54169 8.20033V8.25033C1.54162 9.14678 1.85171 10.0156 2.41934 10.7095C2.98696 11.4033 3.77716 11.8794 4.65585 12.057C4.08401 12.2118 3.48447 12.2346 2.90252 12.1237C3.15043 12.895 3.63335 13.5695 4.28366 14.0528C4.93397 14.536 5.71912 14.8038 6.52919 14.8187C5.15405 15.8982 3.45576 16.4837 1.70752 16.4812C1.39784 16.4812 1.08842 16.4632 0.780853 16.427C2.55542 17.568 4.62114 18.1735 6.73085 18.1712C13.8725 18.1712 17.7767 12.2562 17.7767 7.12616C17.7767 6.95949 17.7725 6.79116 17.765 6.62449C18.5244 6.07531 19.1799 5.39524 19.7009 4.61616L19.7025 4.61366Z" fill="white"/>
</svg>
