<svg width="150" height="67" viewBox="0 0 150 67" fill="none" xmlns="http://www.w3.org/2000/svg">
<g clip-path="url(#clip0)">
<path d="M33.8372 67L10 57.2798L0 33.6736L9.76744 9.95164L33.4884 0L57.3256 9.72021L67.3256 33.3264L57.5581 57.0484L33.8372 67Z" fill="#FFFEF2"/>
<path d="M33.8372 67L10 57.2798L0 33.6736L9.76744 9.95164L33.4884 0L57.3256 9.72021L67.3256 33.3264L57.5581 57.0484L33.8372 67ZM12.2093 55.0812L33.8372 63.8756L55.3488 54.8497L64.1861 33.3264L55.1163 11.9188L33.4884 3.12435L11.9767 12.1503L3.13954 33.6736L12.2093 55.0812Z" fill="#5A2F28"/>
<path d="M32.5581 57.8579C19.0698 57.2793 8.60464 45.8234 9.18603 32.4002C9.76743 18.9771 21.2791 8.56257 34.7674 9.14115C48.2558 9.71973 58.7209 21.1757 58.1395 34.5988C57.5581 48.022 46.0465 58.4365 32.5581 57.8579ZM34.6511 12.0341C22.7907 11.5712 12.6744 20.7128 12.093 32.5159C11.6279 44.319 20.8139 54.3864 32.6744 54.965C44.5349 55.4278 54.6512 46.2862 55.2325 34.4831C55.6977 22.68 46.5116 12.6127 34.6511 12.0341Z" fill="#5A2F28"/>
<path d="M40.3488 20.1348H46.9768L36.6279 50.4526H30.5814L20.3488 20.1348H27.2093L33.7209 43.1624L40.3488 20.1348Z" fill="#5A2F28"/>
<path d="M81.1628 17.9363V18.6306H80.6977V17.9363C79.3023 17.9363 78.4884 17.0105 78.4884 15.6219C78.4884 14.2333 79.3023 13.3076 80.6977 13.3076V12.8447H81.1628V13.3076C82.5581 13.3076 83.3721 14.1176 83.3721 15.6219C83.3721 17.0105 82.5581 17.9363 81.1628 17.9363ZM80.6977 13.6547C79.4186 13.6547 78.8372 14.4648 78.8372 15.6219C78.8372 16.7791 79.4186 17.4734 80.6977 17.4734V13.6547ZM81.1628 13.6547V17.4734C82.3256 17.4734 83.0233 16.6634 83.0233 15.6219C83.0233 14.4648 82.4419 13.6547 81.1628 13.6547Z" fill="white"/>
<path d="M87.5582 18.6306V12.8447H91.0465V13.1919H88.0233V15.5062H90.6977V15.8534H88.0233V18.1677H91.0465V18.5148H87.5582V18.6306Z" fill="white"/>
<path d="M99.6512 20.1349V18.6306H95.4651V20.1349H95V18.1677H95.5814C96.1628 16.8948 96.2791 15.9691 96.2791 13.539V12.8447H99.3023V18.2834H100V20.2506H99.6512V20.1349ZM98.9535 13.1919H96.7442V14.0019C96.7442 16.3162 96.5116 16.8948 96.0465 18.1677H98.9535V13.1919Z" fill="white"/>
<path d="M104.302 18.6306V12.8447H107.791V13.1919H104.767V15.5062H107.442V15.8534H104.767V18.1677H107.791V18.5148H104.302V18.6306Z" fill="white"/>
<path d="M114.419 16.2005H112.674V18.6306H112.209V12.8447H114.302C115.349 12.8447 116.047 13.539 116.047 14.4648C116.163 15.5062 115.465 16.2005 114.419 16.2005ZM114.302 13.1919H112.674V15.7376H114.302C115.116 15.7376 115.698 15.2748 115.698 14.4648C115.698 13.6547 115.233 13.1919 114.302 13.1919Z" fill="white"/>
<path d="M123.256 18.6306L122.791 17.242H120.116L119.651 18.6306H119.186L121.279 12.8447H121.628L123.721 18.6306H123.256ZM121.512 13.4233L120.349 16.7791H122.791L121.512 13.4233Z" fill="white"/>
<path d="M132.093 20.1349V18.6306H127.907V12.8447H128.372V18.2834H131.395V12.8447H131.86V18.2834H132.558V20.2506H132.093V20.1349Z" fill="white"/>
<path d="M140.349 18.6306V13.6547L137.209 18.6306H136.744V12.8447H137.209V17.8205L140.349 12.8447H140.814V18.6306H140.349Z" fill="white"/>
<path d="M148.372 18.6306V16.2005H146.744L145.349 18.6306H144.884L146.279 16.0848C145.465 15.9691 145 15.2748 145 14.4648C145 13.4233 145.698 12.8447 146.744 12.8447H148.837V18.6306H148.372ZM148.372 13.1919H146.744C145.93 13.1919 145.349 13.6547 145.349 14.4648C145.349 15.2748 145.814 15.7376 146.744 15.7376H148.372V13.1919Z" fill="white"/>
<path d="M83.9535 23.4902C86.3953 23.4902 88.2558 25.1103 88.2558 27.5403C88.2558 29.8547 86.5116 31.5904 83.9535 31.5904H81.5116V36.4505H78.9535V23.4902H83.9535ZM83.8372 29.2761C85 29.2761 85.6977 28.5818 85.6977 27.5403C85.6977 26.4989 85 25.8046 83.8372 25.8046H81.5116V29.3918H83.8372V29.2761Z" fill="white"/>
<path d="M93.9535 34.2514C93.4884 35.4086 92.5582 36.45 91.0465 36.45H89.5349V34.2514H90.5814C91.2791 34.2514 91.7442 33.9043 91.9768 33.4414L92.3256 32.5157L88.1396 23.6055H90.814L93.4884 29.8542L95.9302 23.6055H98.6047L93.9535 34.2514Z" fill="white"/>
<path d="M105.116 36.1033C104.535 36.3348 103.954 36.4505 103.256 36.4505C101.86 36.4505 100.581 35.9876 99.7675 35.0619C98.4884 33.789 98.4884 32.0533 98.4884 29.8546V29.2761C98.4884 26.7303 98.7209 25.6888 99.7675 24.6474C100.698 23.7217 101.86 23.2588 103.256 23.2588C103.954 23.2588 104.651 23.3745 105.116 23.6059C105.698 23.8374 106.047 24.0688 106.744 24.7631L105.116 26.3831C104.419 25.6888 103.954 25.4574 103.256 25.4574C102.558 25.4574 101.977 25.6888 101.628 26.1517C101.047 26.846 101.047 28.2346 101.047 29.3918V30.0861C101.047 32.169 101.163 32.8633 101.628 33.4419C101.977 33.9047 102.558 34.1362 103.256 34.1362C104.07 34.1362 104.419 33.9047 105.116 33.2104L106.744 34.8305C106.047 35.6405 105.698 35.8719 105.116 36.1033Z" fill="white"/>
<path d="M114.302 36.1033C113.721 36.3348 113.14 36.4505 112.442 36.4505C111.047 36.4505 109.767 35.9876 108.954 35.0619C107.674 33.789 107.674 32.0533 107.674 29.8546V29.2761C107.674 26.7303 107.907 25.6888 108.954 24.6474C109.884 23.7217 111.047 23.2588 112.442 23.2588C113.14 23.2588 113.837 23.3745 114.302 23.6059C114.884 23.8374 115.233 24.0688 115.93 24.7631L114.302 26.3831C113.605 25.6888 113.14 25.4574 112.442 25.4574C111.744 25.4574 111.163 25.6888 110.814 26.1517C110.233 26.846 110.233 28.2346 110.233 29.3918V30.0861C110.233 32.169 110.349 32.8633 110.814 33.4419C111.163 33.9047 111.744 34.1362 112.442 34.1362C113.256 34.1362 113.605 33.9047 114.302 33.2104L115.93 34.8305C115.233 35.6405 114.884 35.8719 114.302 36.1033Z" fill="white"/>
<path d="M124.651 36.3348L121.279 30.4332L119.651 32.4004V36.3348H117.093V23.4902H119.651V29.1604L124.186 23.4902H127.326L123.023 28.5818L127.674 36.3348H124.651Z" fill="white"/>
<path d="M135.698 36.3348V28.0032L130.698 36.3348H128.488V23.4902H131.047V31.8218L136.047 23.4902H138.256V36.4505H135.698V36.3348Z" fill="white"/>
<path d="M146.977 36.3348L144.419 31.8218L141.977 36.3348H139.07L143.14 29.7389L139.419 23.4902H142.326L144.535 27.656L146.86 23.4902H149.767L146.047 29.7389L150.116 36.3348H146.977Z" fill="white"/>
<path d="M78.9535 54.7337V41.7734H81.5116V52.4194H85.2326V41.7734H87.7907V52.4194H91.5116V41.7734H94.0698V54.7337H78.9535Z" fill="white"/>
<path d="M103.605 54.7337L102.791 52.4194H98.1396L97.3256 54.7337H94.6512L99.4186 41.7734H101.395L106.163 54.7337H103.605ZM100.465 45.5921L98.8372 50.3365H102.093L100.465 45.5921Z" fill="white"/>
<path d="M114.186 54.7342L111.628 50.2213L109.186 54.7342H106.279L110.349 48.1384L106.628 41.8896H109.535L111.744 46.0554L114.07 41.8896H116.977L113.256 48.1384L117.326 54.7342H114.186Z" fill="white"/>
<path d="M127.442 54.7337V47.2121L125 52.0722H123.256L120.814 47.2121V54.7337H118.256V41.7734H120.698L124.07 48.7164L127.442 41.7734H129.884V54.7337H127.442Z" fill="white"/>
<path d="M139.651 54.7337L138.837 52.4194H134.186L133.372 54.7337H130.698L135.465 41.7734H137.442L142.209 54.7337H139.651ZM136.628 45.5921L135 50.3365H138.256L136.628 45.5921Z" fill="white"/>
<path d="M146.512 43.9721V54.618H143.953V43.9721H140.581V41.7734H149.884V43.9721H146.512Z" fill="white"/>
</g>
<defs>
<clipPath id="clip0">
<rect width="150" height="67" fill="white"/>
</clipPath>
</defs>
</svg>
