<svg width="25" height="25" viewBox="0 0 25 25" fill="none" xmlns="http://www.w3.org/2000/svg">
<path d="M22.4781 7.14036C22.624 6.65599 22.4781 6.30078 21.7886 6.30078H19.5042C18.9229 6.30078 18.6573 6.60807 18.5115 6.94557C18.5115 6.94557 17.35 9.77786 15.7042 11.6143C15.1729 12.1487 14.9302 12.3174 14.6406 12.3174C14.4958 12.3174 14.2854 12.1487 14.2854 11.6643V7.14036C14.2854 6.55911 14.1177 6.30078 13.6333 6.30078H10.0438C9.68126 6.30078 9.46251 6.56953 9.46251 6.82578C9.46251 7.37578 10.2854 7.50286 10.3698 9.05286V12.4154C10.3698 13.1518 10.2375 13.2862 9.94584 13.2862C9.17189 13.2862 7.28855 10.4435 6.17084 7.18932C5.95313 6.55703 5.73334 6.30182 5.15001 6.30182H2.86668C2.21355 6.30182 2.08334 6.60911 2.08334 6.94661C2.08334 7.55286 2.8573 10.5529 5.68855 14.5206C7.57605 17.2299 10.2333 18.6987 12.6542 18.6987C14.1052 18.6987 14.2844 18.3727 14.2844 17.8102V15.7622C14.2844 15.1102 14.4229 14.9789 14.8823 14.9789C15.2198 14.9789 15.8011 15.1497 17.1563 16.4549C18.7042 18.0029 18.9604 18.6977 19.8302 18.6977H22.1136C22.7656 18.6977 23.0917 18.3716 22.9042 17.7279C22.699 17.0872 21.9594 16.1549 20.9781 15.0518C20.4448 14.4227 19.6479 13.7456 19.4052 13.407C19.0667 12.9706 19.1646 12.7779 19.4052 12.3904C19.4063 12.3914 22.1886 8.47266 22.4781 7.14036Z" fill="white"/>
</svg>
