<svg width="133" height="80" viewBox="0 0 133 80" fill="none" xmlns="http://www.w3.org/2000/svg">
<path fill-rule="evenodd" clip-rule="evenodd" d="M66.2302 7.08333C39.5875 7.08333 19.6202 22.0538 9.03752 34.0355C7.56427 35.6728 6.74911 37.7974 6.74911 40C6.74911 42.2026 7.56427 44.3272 9.03752 45.9645C19.6235 57.9462 39.5875 72.9167 66.2302 72.9167C92.8697 72.9167 112.834 57.9462 123.42 45.9645C124.893 44.3272 125.708 42.2026 125.708 40C125.708 37.7974 124.893 35.6728 123.42 34.0355C112.834 22.0538 92.8697 7.08333 66.2302 7.08333ZM4.10331 29.6773C15.4266 16.8596 37.0463 0.5 66.2302 0.5C95.4141 0.5 117.031 16.8596 128.354 29.6773C130.89 32.5178 132.291 36.1923 132.291 40C132.291 43.8077 130.89 47.4822 128.354 50.3227C117.031 63.1404 95.4141 79.5 66.2302 79.5C37.0463 79.5 15.4266 63.1404 4.10331 50.3227C1.56754 47.4822 0.166016 43.8077 0.166016 40C0.166016 36.1923 1.56754 32.5178 4.10331 29.6773Z" fill="white"/>
<path fill-rule="evenodd" clip-rule="evenodd" d="M79.3988 39.9992C79.3977 42.7529 78.5332 45.437 76.927 47.6738C75.3208 49.9105 73.0537 51.5874 70.4447 52.4684C67.8357 53.3494 65.0161 53.3903 62.3827 52.5852C59.7493 51.7801 57.4346 50.1696 55.7642 47.9803C54.0939 45.791 53.152 43.1331 53.0711 40.3806C52.9903 37.628 53.7744 34.9194 55.3133 32.6358C56.8522 30.3522 59.0683 28.6085 61.6499 27.6502C64.2315 26.6919 67.0486 26.5671 69.7048 27.2934C70.3928 24.9958 71.8938 23.0471 73.8787 21.7831C69.8665 20.0992 65.4105 19.7873 61.2029 20.8961C56.9953 22.0048 53.2716 24.472 50.6103 27.9144C47.9489 31.3569 46.4989 35.5818 46.4854 39.933C46.472 44.2842 47.8958 48.5181 50.5358 51.9769C53.1758 55.4358 56.8842 57.926 61.0848 59.0607C65.2855 60.1955 69.7433 59.9112 73.7658 58.2521C77.7883 56.5931 81.1504 53.6521 83.3297 49.8859C85.509 46.1198 86.3836 41.7394 85.8176 37.4251C84.1125 38.9755 81.8676 39.9432 79.3988 39.9992Z" fill="white"/>
<path fill-rule="evenodd" clip-rule="evenodd" d="M66 7.08333C47.8201 7.08333 33.0833 21.8201 33.0833 40C33.0833 58.1799 47.8201 72.9167 66 72.9167C84.1799 72.9167 98.9167 58.1799 98.9167 40C98.9167 21.8201 84.1799 7.08333 66 7.08333ZM26.5 40C26.5 18.1861 44.1861 0.5 66 0.5C87.8139 0.5 105.5 18.1861 105.5 40C105.5 61.8139 87.8139 79.5 66 79.5C44.1861 79.5 26.5 61.8139 26.5 40Z" fill="white"/>
<path fill-rule="evenodd" clip-rule="evenodd" d="M79.166 33.4167C80.039 33.4167 80.8763 33.0699 81.4936 32.4526C82.1109 31.8353 82.4577 30.998 82.4577 30.125C82.4577 29.252 82.1109 28.4147 81.4936 27.7974C80.8763 27.1801 80.039 26.8333 79.166 26.8333C78.293 26.8333 77.4558 27.1801 76.8384 27.7974C76.2211 28.4147 75.8743 29.252 75.8743 30.125C75.8743 30.998 76.2211 31.8353 76.8384 32.4526C77.4558 33.0699 78.293 33.4167 79.166 33.4167ZM79.166 40C81.785 40 84.2968 38.9596 86.1487 37.1077C88.0006 35.2558 89.041 32.744 89.041 30.125C89.041 27.506 88.0006 24.9942 86.1487 23.1423C84.2968 21.2904 81.785 20.25 79.166 20.25C76.547 20.25 74.0353 21.2904 72.1833 23.1423C70.3314 24.9942 69.291 27.506 69.291 30.125C69.291 32.744 70.3314 35.2558 72.1833 37.1077C74.0353 38.9596 76.547 40 79.166 40Z" fill="white"/>
</svg>
