<svg width="76" height="77" viewBox="0 0 76 77" fill="none" xmlns="http://www.w3.org/2000/svg">
<path d="M74.6431 63.0859V46.7403C74.6431 44.0385 72.4717 41.8771 69.7574 41.8771H66.5003C65.8217 41.8771 65.0074 42.1473 64.6003 42.6876L59.4431 48.0912L54.286 40.5262H21.7146L16.6931 48.0912L11.536 42.6876C10.9931 42.1473 10.3146 41.8771 9.50028 41.8771H6.24314C3.52885 41.8771 1.35742 44.0385 1.35742 46.7403V63.221C1.35742 65.1122 2.30742 66.8684 3.66456 68.0842L1.35742 71.5964V75.6491H74.6431V71.5964L72.336 67.9491C73.6931 66.7333 74.6431 64.9771 74.6431 63.0859Z" fill="#F9F9F9"/>
<path d="M48.8576 40.5263V34.8526C48.8576 30.5298 41.2576 28.3684 37.3218 28.3684C33.3861 28.3684 25.7861 30.6649 25.7861 34.8526V40.5263" fill="#F9F9F9"/>
<path d="M48.8576 40.5263V34.8526C48.8576 30.5298 41.2576 28.3684 37.3218 28.3684C33.3861 28.3684 25.7861 30.6649 25.7861 34.8526V40.5263" stroke="#5A2F28" stroke-width="1.5" stroke-miterlimit="10"/>
<path d="M71.3863 68.7597C73.2863 67.5439 74.6434 65.5176 74.6434 63.086V46.7404C74.6434 44.0386 72.472 41.8772 69.7577 41.8772H66.5006C65.822 41.8772 65.0077 42.1474 64.6006 42.6877L57.4077 49.9825H49.5363C49.5363 49.9825 48.8577 55.386 54.0149 55.386C57.0006 55.386 61.8863 55.386 61.8863 55.386L68.5363 48.6316" stroke="#5A2F28" stroke-width="1.5" stroke-miterlimit="10"/>
<path d="M66.4999 37.8246C69.4856 37.8246 71.9284 35.2579 71.9284 32.0158V30.1246C71.9284 26.8825 69.4856 24.3158 66.4999 24.3158C63.5141 24.3158 61.0713 26.8825 61.0713 30.1246V32.0158C61.0713 35.2579 63.5141 37.8246 66.4999 37.8246Z" fill="#F9F9F9" stroke="#5A2F28" stroke-width="1.5" stroke-miterlimit="10"/>
<path d="M4.61456 68.7597C2.71456 67.5439 1.35742 65.5176 1.35742 63.086V46.7404C1.35742 44.0386 3.52885 41.8772 6.24314 41.8772H9.50028C10.1789 41.8772 10.9931 42.1474 11.4003 42.6877L18.4574 49.9825H26.3288C26.3288 49.9825 27.0074 55.386 21.8503 55.386C18.8646 55.386 13.9789 55.386 13.9789 55.386L7.32885 48.6316" stroke="#5A2F28" stroke-width="1.5" stroke-miterlimit="10"/>
<path d="M10.7217 56.7368L1.35742 71.5965V75.6491H74.6431V71.5965L65.2788 56.7368" stroke="#5A2F28" stroke-width="1.5" stroke-miterlimit="10"/>
<path d="M16.2861 48.6315L21.7147 40.5262H54.2861L59.7147 48.6315" stroke="#5A2F28" stroke-width="1.5" stroke-miterlimit="10"/>
<path d="M9.49986 37.8246C6.51415 37.8246 4.07129 35.2579 4.07129 32.0158V30.1246C4.07129 26.8825 6.51415 24.3158 9.49986 24.3158C12.4856 24.3158 14.9284 26.8825 14.9284 30.1246V32.0158C14.9284 35.2579 12.4856 37.8246 9.49986 37.8246Z" fill="#F9F9F9" stroke="#5A2F28" stroke-width="1.5" stroke-miterlimit="10"/>
<path d="M37.9999 24.3158C40.9856 24.3158 43.4284 21.7491 43.4284 18.507V16.6158C43.4284 13.3737 40.9856 10.807 37.9999 10.807C35.0141 10.807 32.5713 13.3737 32.5713 16.6158V18.507C32.5713 21.7491 35.0141 24.3158 37.9999 24.3158Z" fill="#F9F9F9" stroke="#5A2F28" stroke-width="1.5" stroke-miterlimit="10"/>
</svg>
