<svg width="85" height="52" viewBox="0 0 85 52" fill="none" xmlns="http://www.w3.org/2000/svg">
<g clip-path="url(#clip0)">
<path d="M62.23 8.95332L59.8331 9.96774C59.4337 10.1442 58.9898 10.1442 58.5903 10.056L53.8853 8.68869C53.3083 8.51227 52.7757 8.33585 52.1987 8.15943C50.1125 7.45375 41.4128 4.98386 35.5094 10.2765L34.5772 11.4673C33.2457 13.1874 31.7365 14.7311 30.0498 16.0984C29.3396 16.6276 28.6295 17.2892 27.9193 17.9508C26.3214 19.4945 27.2979 22.2731 29.5172 22.4495C31.4702 22.5818 33.9558 21.9643 36.5746 19.2298C36.5746 19.2298 39.948 15.525 43.3658 16.5835C43.3658 16.5835 61.6086 24.3901 64.8044 32.4614L70.3971 27.9185" stroke="#5A2F28" stroke-width="1.5" stroke-miterlimit="10" stroke-linecap="round" stroke-linejoin="round"/>
<path d="M14.293 29.1094C14.5149 29.2858 20.9509 33.3876 22.6376 34.843" stroke="#5A2F28" stroke-width="1.5" stroke-miterlimit="10" stroke-linecap="round" stroke-linejoin="round"/>
<path d="M23.7031 9.74719L26.1 10.5852C29.0739 11.6437 32.4029 11.5996 35.2436 10.2324C35.4655 10.1441 35.6875 10.0118 35.9094 9.87951" stroke="#5A2F28" stroke-width="1.5" stroke-miterlimit="10" stroke-linecap="round" stroke-linejoin="round"/>
<path d="M64.805 32.4614C65.8703 34.2256 65.7371 36.4309 64.4943 37.9746C63.3846 39.3418 61.6092 40.0034 59.8337 39.7388C59.8781 39.8711 60.4551 41.8999 59.0347 43.5759C58.1026 44.7227 56.5935 45.2519 55.1287 44.9873C55.1287 45.296 55.0844 46.8397 53.7971 48.0306C52.6875 49.045 51.0452 49.3537 49.4917 48.8244C49.3585 49.1332 48.6927 50.5445 47.006 51.2061C45.4969 51.7795 43.5439 50.9856 42.5674 50.4563" stroke="#5A2F28" stroke-width="1.5" stroke-miterlimit="10" stroke-linecap="round" stroke-linejoin="round"/>
<path d="M37.4631 50.3681C38.4396 51.2061 39.7712 51.559 41.014 51.2061C41.014 51.2061 41.014 51.2061 41.0584 51.2061C42.5675 50.7651 44.6093 48.9568 44.2098 47.3249C43.9435 46.2663 42.745 45.5166 41.2803 45.296C41.3247 45.0314 41.5466 43.8847 40.8364 42.7379C39.8155 41.106 37.7738 41.1502 37.685 41.1502C37.7294 40.7532 37.7294 39.7829 37.1524 38.7685C36.0871 37.0043 34.0009 36.8278 33.779 36.8278C34.6223 32.8143 28.7633 32.8584 26.1001 33.123C25.168 33.2112 24.1915 33.52 23.437 34.0933C22.1497 35.0636 22.061 36.0781 22.4604 37.2248C22.7712 38.1069 33.8678 47.369 37.4631 50.3681Z" stroke="#5A2F28" stroke-width="1.5" stroke-miterlimit="10" stroke-linecap="round" stroke-linejoin="round"/>
<path d="M33.7793 36.8278C32.0038 37.4452 29.8289 37.9745 27.2989 38.2832C25.9673 38.4597 24.7688 38.5038 23.6592 38.5038" stroke="#5A2F28" stroke-width="1.5" stroke-miterlimit="10" stroke-linecap="round" stroke-linejoin="round"/>
<path d="M28.2744 42.6056C29.3397 42.6056 30.4493 42.5174 31.6922 42.385C34.0003 42.1204 35.9977 41.6353 37.6843 41.0619" stroke="#5A2F28" stroke-width="1.5" stroke-miterlimit="10" stroke-linecap="round" stroke-linejoin="round"/>
<path d="M41.2359 45.252C39.6824 45.8253 37.907 46.3546 35.8208 46.7515C35.0218 46.8838 34.2229 47.0162 33.5127 47.1044" stroke="#5A2F28" stroke-width="1.5" stroke-miterlimit="10" stroke-linecap="round" stroke-linejoin="round"/>
<path d="M22.9922 6.39527C24.0131 6.88043 24.457 8.11537 23.9687 9.1739L23.7024 9.74727L14.2925 29.1094L14.1593 29.4182C13.6711 30.4767 12.3839 30.9178 11.3186 30.3885L1.86431 25.8457C0.799033 25.3605 0.355169 24.0814 0.887806 23.0229L10.6972 2.82275C11.1855 1.76423 12.4727 1.32318 13.5379 1.85244L22.9922 6.39527Z" stroke="#5A2F28" stroke-width="1.5" stroke-miterlimit="10" stroke-linecap="round" stroke-linejoin="round"/>
<path d="M83.0472 25.3604L73.3709 29.4622C72.3057 29.9033 71.0629 29.4181 70.5746 28.3596L70.4414 28.0509L70.3971 27.9185L62.1856 8.95332L61.9193 8.29174L61.6529 7.67427C61.2091 6.61575 61.6973 5.3808 62.7626 4.93975L72.4388 0.793863C73.5041 0.352812 74.7469 0.837969 75.2352 1.89649L84.1125 22.5377C84.6007 23.6403 84.1125 24.8753 83.0472 25.3604Z" stroke="#5A2F28" stroke-width="1.5" stroke-miterlimit="10" stroke-linecap="round" stroke-linejoin="round"/>
</g>
<defs>
<clipPath id="clip0">
<rect width="85" height="52" fill="white"/>
</clipPath>
</defs>
</svg>
