<svg width="22" height="12" viewBox="0 0 22 12" fill="none" xmlns="http://www.w3.org/2000/svg">
<path fill-rule="evenodd" clip-rule="evenodd" d="M0.977622 6.37163C0.860412 6.25442 0.794564 6.09545 0.794563 5.92969C0.794564 5.76393 0.860412 5.60496 0.977622 5.48775L6.28092 0.184445C6.39813 0.0672343 6.5571 0.00138708 6.72286 0.00138674C6.88862 0.00138674 7.0476 0.0672346 7.16481 0.184445C7.28202 0.301655 7.34787 0.460628 7.34786 0.626387C7.34786 0.792148 7.28202 0.951118 7.16481 1.06833L2.92835 5.30478L20.865 5.3039C20.9472 5.3039 21.0286 5.32008 21.1045 5.35153C21.1804 5.38298 21.2494 5.42908 21.3075 5.48719C21.3656 5.5453 21.4117 5.61428 21.4432 5.69021C21.4746 5.76613 21.4908 5.84751 21.4908 5.92969C21.4908 6.01187 21.4746 6.09324 21.4432 6.16917C21.4117 6.24509 21.3656 6.31408 21.3075 6.37219C21.2494 6.4303 21.1804 6.47639 21.1045 6.50784C21.0286 6.53929 20.9472 6.55548 20.865 6.55548L2.92835 6.55459L7.16481 10.791C7.28202 10.9083 7.34786 11.0672 7.34786 11.233C7.34787 11.3987 7.28202 11.5577 7.16481 11.6749C7.0476 11.7921 6.88862 11.858 6.72286 11.858C6.5571 11.858 6.39813 11.7921 6.28092 11.6749L0.977622 6.37163Z" fill="black"/>
</svg>
