<svg width="50" height="50" viewBox="0 0 50 50" fill="none" xmlns="http://www.w3.org/2000/svg">
<g opacity="0.75">
<path fill-rule="evenodd" clip-rule="evenodd" d="M25.0729 14.5833C16.6416 14.5833 10.3229 19.3208 6.97394 23.1125C6.50772 23.6306 6.24976 24.303 6.24976 25C6.24976 25.697 6.50772 26.3694 6.97394 26.8875C10.3239 30.6792 16.6416 35.4167 25.0729 35.4167C33.5031 35.4167 39.8208 30.6792 43.1708 26.8875C43.637 26.3694 43.895 25.697 43.895 25C43.895 24.303 43.637 23.6306 43.1708 23.1125C39.8208 19.3208 33.5031 14.5833 25.0729 14.5833ZM5.41248 21.7333C8.99582 17.6771 15.8375 12.5 25.0729 12.5C34.3083 12.5 41.1489 17.6771 44.7323 21.7333C45.5347 22.6322 45.9783 23.795 45.9783 25C45.9783 26.205 45.5347 27.3678 44.7323 28.2667C41.1489 32.3229 34.3083 37.5 25.0729 37.5C15.8375 37.5 8.99582 32.3229 5.41248 28.2667C4.61003 27.3678 4.1665 26.205 4.1665 25C4.1665 23.795 4.61003 22.6322 5.41248 21.7333Z" fill="white"/>
<path fill-rule="evenodd" clip-rule="evenodd" d="M29.2396 24.9999C29.2393 25.8713 28.9657 26.7207 28.4574 27.4285C27.9491 28.1364 27.2317 28.667 26.406 28.9458C25.5804 29.2246 24.6881 29.2376 23.8548 28.9828C23.0214 28.728 22.2889 28.2184 21.7603 27.5256C21.2317 26.8327 20.9337 25.9916 20.9081 25.1206C20.8825 24.2495 21.1306 23.3924 21.6176 22.6697C22.1046 21.947 22.8059 21.3953 23.6229 21.092C24.4399 20.7887 25.3313 20.7492 26.1719 20.9791C26.3896 20.252 26.8646 19.6353 27.4927 19.2353C26.2231 18.7024 24.813 18.6037 23.4814 18.9546C22.1499 19.3055 20.9715 20.0862 20.1293 21.1756C19.2871 22.265 18.8283 23.602 18.824 24.9789C18.8197 26.3559 19.2703 27.6957 20.1058 28.7903C20.9412 29.8849 22.1147 30.6729 23.4441 31.032C24.7734 31.3911 26.1841 31.3012 27.457 30.7761C28.73 30.2511 29.7939 29.3204 30.4836 28.1286C31.1732 26.9368 31.45 25.5506 31.2709 24.1853C30.7313 24.6759 30.0209 24.9822 29.2396 24.9999Z" fill="white"/>
<path fill-rule="evenodd" clip-rule="evenodd" d="M25 14.5833C19.2469 14.5833 14.5833 19.2469 14.5833 25C14.5833 30.7531 19.2469 35.4167 25 35.4167C30.7531 35.4167 35.4167 30.7531 35.4167 25C35.4167 19.2469 30.7531 14.5833 25 14.5833ZM12.5 25C12.5 18.0969 18.0969 12.5 25 12.5C31.9031 12.5 37.5 18.0969 37.5 25C37.5 31.9031 31.9031 37.5 25 37.5C18.0969 37.5 12.5 31.9031 12.5 25Z" fill="white"/>
<path fill-rule="evenodd" clip-rule="evenodd" d="M29.1666 22.9167C29.4429 22.9167 29.7078 22.8069 29.9032 22.6116C30.0985 22.4162 30.2083 22.1513 30.2083 21.875C30.2083 21.5987 30.0985 21.3338 29.9032 21.1384C29.7078 20.9431 29.4429 20.8333 29.1666 20.8333C28.8904 20.8333 28.6254 20.9431 28.4301 21.1384C28.2347 21.3338 28.125 21.5987 28.125 21.875C28.125 22.1513 28.2347 22.4162 28.4301 22.6116C28.6254 22.8069 28.8904 22.9167 29.1666 22.9167ZM29.1666 25C29.9954 25 30.7903 24.6708 31.3763 24.0847C31.9624 23.4987 32.2916 22.7038 32.2916 21.875C32.2916 21.0462 31.9624 20.2513 31.3763 19.6653C30.7903 19.0792 29.9954 18.75 29.1666 18.75C28.3378 18.75 27.543 19.0792 26.9569 19.6653C26.3709 20.2513 26.0416 21.0462 26.0416 21.875C26.0416 22.7038 26.3709 23.4987 26.9569 24.0847C27.543 24.6708 28.3378 25 29.1666 25Z" fill="white"/>
</g>
</svg>
