<svg width="80" height="79" viewBox="0 0 80 79" fill="none" xmlns="http://www.w3.org/2000/svg">
<g clip-path="url(#clip0)">
<path d="M44.4943 51.6845C57.2857 42.6837 60.3936 24.9677 51.4361 12.1147C42.4785 -0.738351 24.8476 -3.86126 12.0563 5.13948C-0.735067 14.1402 -3.84298 31.8562 5.11454 44.7093C14.0721 57.5623 31.703 60.6852 44.4943 51.6845Z" fill="#F9F9F9"/>
<path d="M75.8625 63.7545H34.4832C32.966 63.7545 31.7246 62.5071 31.7246 60.9825V8.31588C31.7246 6.79131 32.966 5.54395 34.4832 5.54395H67.5867L78.6212 16.6317V60.9825C78.6212 62.5071 77.3798 63.7545 75.8625 63.7545Z" fill="#F9F9F9"/>
<path d="M66.207 5.54395V18.0176H78.6208L66.207 5.54395Z" fill="#F9F9F9"/>
<path d="M75.8625 63.7545H34.4832C32.966 63.7545 31.7246 62.5071 31.7246 60.9825V8.31588C31.7246 6.79131 32.966 5.54395 34.4832 5.54395H67.5867L78.6212 16.6317V60.9825C78.6212 62.5071 77.3798 63.7545 75.8625 63.7545Z" stroke="#5A2F28" stroke-width="1.5" stroke-miterlimit="10"/>
<path d="M74.4829 18.0177H66.207V9.7019" stroke="#5A2F28" stroke-width="1.5" stroke-miterlimit="10"/>
<path d="M38.6206 34.6493L42.7586 38.8072L46.8965 34.6493V30.4914L36.5517 20.0967L41.3792 15.2458C38.7586 12.6125 34.4827 11.0879 30.3448 11.0879C20.4137 11.0879 12.4137 19.1265 12.4137 29.1054V45.737L16.5517 49.8949V60.9826H13.793C12.2758 60.9826 11.0344 62.23 11.0344 63.7546V67.9125H9.65511C8.13786 67.9125 6.89648 69.1598 6.89648 70.6844V77.6142H46.8965V70.6844C46.8965 69.1598 45.6551 67.9125 44.1379 67.9125H42.7586V63.7546C42.7586 62.23 41.5172 60.9826 39.9999 60.9826H37.2413V55.4388L42.7586 49.8949L33.1034 40.1932V34.6493H38.6206Z" fill="#F9F9F9"/>
<path d="M11.0342 67.9122V63.7544C11.0342 62.2298 12.2756 60.9824 13.7928 60.9824H23.448" stroke="#5A2F28" stroke-width="1.5" stroke-miterlimit="10"/>
<path d="M33.1035 60.9824H40.0001C41.5173 60.9824 42.7587 62.2298 42.7587 63.7544V67.9122" stroke="#5A2F28" stroke-width="1.5" stroke-miterlimit="10"/>
<path d="M26.2068 67.9124H9.65511C8.13786 67.9124 6.89648 69.1597 6.89648 70.6843V77.6141H46.8965V70.6843C46.8965 69.1597 45.6551 67.9124 44.1379 67.9124H35.862" stroke="#5A2F28" stroke-width="1.5" stroke-miterlimit="10"/>
<path d="M28.9658 67.9124H31.7244" stroke="#5A2F28" stroke-width="1.5" stroke-miterlimit="10"/>
<path d="M26.207 60.9824H28.9657" stroke="#5A2F28" stroke-width="1.5" stroke-miterlimit="10"/>
<path d="M33.1035 34.6492V40.193L42.7587 49.8948L37.2414 55.4386V60.9825" stroke="#5A2F28" stroke-width="1.5" stroke-miterlimit="10"/>
<path d="M34.4823 18.0176L46.8961 30.4913V34.6492L42.7582 38.8071L38.6203 34.6492H30.3444C27.3099 34.6492 24.8271 32.1544 24.8271 29.1053" stroke="#5A2F28" stroke-width="1.5" stroke-miterlimit="10"/>
<path d="M16.552 59.5967V49.8949L12.4141 45.737V29.1054C12.4141 19.1265 20.4141 11.0879 30.3451 11.0879C34.483 11.0879 38.7589 12.6125 41.3796 15.2458L37.2416 19.4037" stroke="#5A2F28" stroke-width="1.5" stroke-miterlimit="10"/>
<path d="M28.9661 16.6316C22.8972 16.6316 17.9316 21.6211 17.9316 27.7193V33.2632" stroke="#5A2F28" stroke-width="1.5" stroke-miterlimit="10"/>
<path d="M56.5518 27.7195H70.3449" stroke="#5A2F28" stroke-width="1.5" stroke-miterlimit="10"/>
<path d="M51.0352 27.7195H53.7938" stroke="#5A2F28" stroke-width="1.5" stroke-miterlimit="10"/>
<path d="M56.5518 33.2632H70.3449" stroke="#5A2F28" stroke-width="1.5" stroke-miterlimit="10"/>
<path d="M51.0352 33.2632H53.7938" stroke="#5A2F28" stroke-width="1.5" stroke-miterlimit="10"/>
<path d="M56.5518 38.8071H70.3449" stroke="#5A2F28" stroke-width="1.5" stroke-miterlimit="10"/>
<path d="M51.0352 38.8071H53.7938" stroke="#5A2F28" stroke-width="1.5" stroke-miterlimit="10"/>
<path d="M56.5518 44.3511H70.3449" stroke="#5A2F28" stroke-width="1.5" stroke-miterlimit="10"/>
<path d="M51.0352 44.3511H53.7938" stroke="#5A2F28" stroke-width="1.5" stroke-miterlimit="10"/>
<path d="M56.5518 49.8948H70.3449" stroke="#5A2F28" stroke-width="1.5" stroke-miterlimit="10"/>
<path d="M51.0352 49.8948H53.7938" stroke="#5A2F28" stroke-width="1.5" stroke-miterlimit="10"/>
</g>
<defs>
<clipPath id="clip0">
<rect width="80" height="79" fill="white"/>
</clipPath>
</defs>
</svg>
