<svg width="76" height="67" viewBox="0 0 76 67" fill="none" xmlns="http://www.w3.org/2000/svg">
<g clip-path="url(#clip0)">
<path d="M18.3196 45.1725C18.3196 45.1725 18.3196 45.2214 18.271 45.3682C18.2224 45.6619 18.4654 47.9131 20.6035 48.4515C22.5472 48.892 37.8541 39.1038 43.5881 35.2375L44.2684 34.797C45.0459 34.2586 48.1073 31.6648 52.2863 30.1476C56.1252 28.7283 59.7211 26.7218 62.7339 23.9321C62.7825 23.8832 62.7825 23.8832 62.8311 23.8342C64.6777 22.1213 67.0587 21.0936 69.5856 20.9467L75.2224 20.751" stroke="#5A2F28" stroke-width="1.5" stroke-miterlimit="10" stroke-linecap="round" stroke-linejoin="round"/>
<path d="M19.8262 39.4954L18.2227 19.6254L24.1996 18.6955C26.0462 18.4019 27.8927 18.4019 29.7393 18.5976L30.3224 18.6466C32.0232 18.8423 33.4324 20.0658 33.8697 21.7298" stroke="#5A2F28" stroke-width="1.5" stroke-miterlimit="10" stroke-linecap="round" stroke-linejoin="round"/>
<path d="M75.2713 0.734131L64.5808 0.880953C64.5808 0.880953 63.9491 0.880953 62.8314 0.929894C56.1255 1.1746 32.169 2.10447 26.4836 4.20893L10.788 13.0183C9.81609 13.4587 9.08719 14.2907 8.74704 15.3185L8.11533 17.0314C7.87236 17.6677 7.82377 18.3528 7.92095 19.038C7.92095 19.038 12.0028 33.965 14.6268 40.9635" stroke="#5A2F28" stroke-width="1.5" stroke-miterlimit="10" stroke-linecap="round" stroke-linejoin="round"/>
<path d="M62.8799 23.8342C62.8799 23.8342 67.2533 18.8912 66.7674 15.3674" stroke="#5A2F28" stroke-width="1.5" stroke-miterlimit="10" stroke-linecap="round" stroke-linejoin="round"/>
<path d="M18.2718 19.6252H15.502" stroke="#5A2F28" stroke-width="1.5" stroke-miterlimit="10" stroke-linecap="round" stroke-linejoin="round"/>
<path d="M25.3171 18.5486L24.248 35.58" stroke="#5A2F28" stroke-width="1.5" stroke-miterlimit="10" stroke-linecap="round" stroke-linejoin="round"/>
<path d="M31.6343 18.989L29.1074 31.0285" stroke="#5A2F28" stroke-width="1.5" stroke-miterlimit="10" stroke-linecap="round" stroke-linejoin="round"/>
<path d="M26.5326 4.20898C26.5326 4.20898 24.6375 6.01979 25.7551 7.78166" stroke="#5A2F28" stroke-width="1.5" stroke-miterlimit="10" stroke-linecap="round" stroke-linejoin="round"/>
<path d="M8.7959 15.2695C8.7959 15.2695 10.3023 15.4653 10.8854 15.8568" stroke="#5A2F28" stroke-width="1.5" stroke-miterlimit="10" stroke-linecap="round" stroke-linejoin="round"/>
<path d="M18.3203 45.1724C19.0006 44.3404 20.6528 42.3338 21.9648 41.355C22.5965 40.9145 23.4226 40.8656 24.0543 41.306C24.6375 41.6976 25.3664 42.2359 25.8037 42.97C26.241 43.7041 26.0953 44.683 25.4635 45.2703L22.3536 48.0599" stroke="#5A2F28" stroke-width="1.5" stroke-miterlimit="10" stroke-linecap="round" stroke-linejoin="round"/>
<path d="M33.9186 21.7297C33.9186 21.7297 34.6475 24.0789 34.4046 25.5961C34.2102 26.7217 32.6552 28.5325 31.1488 30.7838C29.7882 32.7904 26.3867 35.8736 24.4429 37.8313C24.1514 38.1249 23.8598 38.4675 23.5682 38.7611L19.0977 44.2425" stroke="#5A2F28" stroke-width="1.5" stroke-miterlimit="10" stroke-linecap="round" stroke-linejoin="round"/>
<path d="M39.2145 40.9635H45.5802V66.2659H45.4344H0.728516V40.9635H19.0482" stroke="#5A2F28" stroke-width="1.5" stroke-miterlimit="10" stroke-linecap="round" stroke-linejoin="round"/>
<path d="M24.8789 62.7912H41.1091V44.3894H36.0554" stroke="#5A2F28" stroke-width="1.5" stroke-miterlimit="10" stroke-linecap="round" stroke-linejoin="round"/>
<path d="M13.3143 44.3894H5.19922V62.7912H13.3143" stroke="#5A2F28" stroke-width="1.5" stroke-miterlimit="10" stroke-linecap="round" stroke-linejoin="round"/>
</g>
<defs>
<clipPath id="clip0">
<rect width="76" height="67" fill="white"/>
</clipPath>
</defs>
</svg>
