<svg width="15" height="17" viewBox="0 0 15 17" fill="none" xmlns="http://www.w3.org/2000/svg">
<path fill-rule="evenodd" clip-rule="evenodd" d="M7.20801 0.666668C10.9988 0.666668 14.083 3.77417 14.083 7.59417C14.083 12.29 8.70301 16.9167 7.20801 16.9167C5.71301 16.9167 0.333008 12.29 0.333008 7.59417C0.333008 3.77417 3.41717 0.666668 7.20801 0.666668ZM7.20801 1.91667C4.10634 1.91667 1.58301 4.46417 1.58301 7.59417C1.58301 11.5767 6.26967 15.4567 7.20801 15.6633C8.14634 15.4558 12.833 11.5758 12.833 7.59417C12.833 4.46417 10.3097 1.91667 7.20801 1.91667ZM7.20884 4.83333C8.70217 4.83333 9.91717 6.04833 9.91717 7.5425C9.91717 9.03583 8.70217 10.25 7.20884 10.25C5.71551 10.25 4.50051 9.03583 4.50051 7.5425C4.50051 6.04833 5.71551 4.83333 7.20884 4.83333ZM7.20884 6.08333C6.40467 6.08333 5.75051 6.7375 5.75051 7.5425C5.75051 8.34667 6.40467 9 7.20884 9C8.01301 9 8.66717 8.34667 8.66717 7.5425C8.66717 6.7375 8.01301 6.08333 7.20884 6.08333Z" fill="white"/>
</svg>
