<svg width="17" height="24" viewBox="0 0 17 24" fill="none" xmlns="http://www.w3.org/2000/svg">
<path d="M0.911128 22.0104H16.0882C16.2947 22.0111 16.4931 22.0908 16.6426 22.2333C16.792 22.3758 16.8812 22.5701 16.8918 22.7763C16.9024 22.9825 16.8336 23.185 16.6995 23.342C16.5654 23.499 16.3762 23.5987 16.1709 23.6205L16.0882 23.625H0.911128C0.70464 23.6243 0.506256 23.5446 0.356779 23.4021C0.207302 23.2596 0.118096 23.0653 0.107508 22.8591C0.0969202 22.6529 0.165755 22.4505 0.299856 22.2934C0.433956 22.1364 0.623127 22.0367 0.828461 22.0149L0.911128 22.0104H16.0882H0.911128ZM8.25554 0.378875L8.33821 0.375C8.75607 0.375 9.1003 0.69275 9.14163 1.09963L9.1455 1.18229V16.8696L12.7925 13.2232C12.867 13.1461 12.9561 13.0846 13.0546 13.0424C13.1531 13.0001 13.2591 12.9778 13.3663 12.9769C13.4734 12.976 13.5797 12.9965 13.6789 13.0371C13.7781 13.0777 13.8683 13.1377 13.944 13.2135C14.0198 13.2893 14.0797 13.3795 14.1203 13.4787C14.1609 13.578 14.1813 13.6843 14.1803 13.7915C14.1793 13.8986 14.157 14.0046 14.1147 14.103C14.0724 14.2015 14.0108 14.2906 13.9337 14.365L8.91042 19.3883C8.75904 19.5396 8.55381 19.6245 8.33983 19.6245C8.12584 19.6245 7.92061 19.5396 7.76923 19.3883L2.7453 14.365C2.59388 14.2136 2.50881 14.0083 2.50881 13.7941C2.50881 13.58 2.59388 13.3746 2.7453 13.2232C2.89671 13.0718 3.10208 12.9867 3.31621 12.9867C3.53035 12.9867 3.73571 13.0718 3.88713 13.2232L7.53092 16.867V1.18229C7.53092 0.764437 7.84867 0.420208 8.25554 0.378875L8.33821 0.375L8.25554 0.378875Z" fill="#5A2F28"/>
</svg>
