<svg width="19" height="21" viewBox="0 0 19 21" fill="none" xmlns="http://www.w3.org/2000/svg">
<path d="M1.76112 10.6802L9.68092 2.76042C10.0698 2.36524 10.5331 2.05097 11.044 1.83574C11.555 1.6205 12.1035 1.50856 12.6579 1.50637C13.2123 1.50418 13.7617 1.61178 14.2743 1.82297C14.787 2.03415 15.2527 2.34475 15.6447 2.73684C16.0367 3.12892 16.3472 3.59474 16.5583 4.10742C16.7693 4.62011 16.8768 5.16951 16.8745 5.72393C16.8721 6.27836 16.7601 6.82683 16.5447 7.33773C16.3294 7.84862 16.015 8.31183 15.6197 8.70061L6.21592 18.1044C5.82215 18.4984 5.28802 18.7198 4.73101 18.7199C4.17401 18.72 3.63977 18.4989 3.24582 18.1051C2.85187 17.7113 2.63047 17.1772 2.63034 16.6202C2.63021 16.0632 2.85135 15.529 3.24512 15.135L11.6591 6.72101C11.7261 6.65654 11.7795 6.57937 11.8163 6.49402C11.8531 6.40867 11.8725 6.31685 11.8735 6.22391C11.8744 6.13097 11.8568 6.03877 11.8217 5.9527C11.7867 5.86662 11.7348 5.78839 11.6692 5.72258C11.6036 5.65676 11.5255 5.60468 11.4395 5.56936C11.3535 5.53404 11.2614 5.5162 11.1684 5.51687C11.0755 5.51755 10.9836 5.53672 10.8982 5.57328C10.8127 5.60984 10.7354 5.66306 10.6707 5.72982L2.25672 14.1438C1.92933 14.4683 1.66925 14.8542 1.49141 15.2794C1.31357 15.7046 1.22147 16.1608 1.22039 16.6217C1.21932 17.0826 1.3093 17.5392 1.48515 17.9652C1.66101 18.3913 1.91929 18.7784 2.24516 19.1044C2.57103 19.4303 2.95808 19.6887 3.38407 19.8647C3.81007 20.0407 4.26664 20.1308 4.72755 20.1298C5.18846 20.1289 5.64465 20.0369 6.06993 19.8592C6.4952 19.6815 6.88119 19.4215 7.20572 19.0942L16.6095 9.69042C17.6598 8.64018 18.2498 7.21577 18.2498 5.73052C18.2498 4.24526 17.6598 2.82085 16.6095 1.77062C15.5593 0.720385 14.1349 0.130371 12.6496 0.130371C11.1644 0.130371 9.73995 0.720385 8.68972 1.77062L0.771319 9.69042C0.704462 9.75499 0.651134 9.83223 0.614448 9.91763C0.577762 10.003 0.558451 10.0949 0.557644 10.1878C0.556836 10.2808 0.574547 10.373 0.609744 10.459C0.64494 10.545 0.696917 10.6232 0.762642 10.6889C0.828367 10.7546 0.906524 10.8066 0.992551 10.8418C1.07858 10.877 1.17075 10.8947 1.2637 10.8939C1.35665 10.8931 1.4485 10.8738 1.5339 10.8371C1.61931 10.8004 1.69655 10.7471 1.76112 10.6802Z" fill="black"/>
</svg>
