<svg width="150" height="67" viewBox="0 0 150 67" fill="none" xmlns="http://www.w3.org/2000/svg">
<g clip-path="url(#clip0)">
<path d="M33.8372 67L10 57.2798L0 33.6736L9.76744 9.95164L33.4884 0L57.3256 9.72021L67.3256 33.3264L57.5581 57.0484L33.8372 67Z" fill="#FFFEF2"/>
<path d="M33.8372 67L10 57.2798L0 33.6736L9.76744 9.95164L33.4884 0L57.3256 9.72021L67.3256 33.3264L57.5581 57.0484L33.8372 67ZM12.2093 55.0812L33.8372 63.8756L55.3488 54.8497L64.1861 33.3264L55.1163 11.9188L33.4884 3.12435L11.9767 12.1503L3.13954 33.6736L12.2093 55.0812Z" fill="#5A2F28"/>
<path d="M32.5581 57.8584C19.0698 57.2798 8.60464 45.8238 9.18603 32.4007C9.76743 18.9775 21.2791 8.56304 34.7674 9.14162C48.2558 9.72021 58.7209 21.1762 58.1395 34.5993C57.5581 48.0224 46.0465 58.437 32.5581 57.8584ZM34.6511 12.0345C22.7907 11.5717 12.6744 20.7133 12.093 32.5164C11.6279 44.3195 20.8139 54.3869 32.6744 54.9655C44.5349 55.4283 54.6512 46.2867 55.2325 34.4836C55.6977 22.6805 46.5116 12.6131 34.6511 12.0345Z" fill="#5A2F28"/>
<path d="M40.3488 20.1347H46.9768L36.6279 50.4525H30.5814L20.3488 20.1347H27.2093L33.7209 43.1623L40.3488 20.1347Z" fill="#5A2F28"/>
<path d="M81.1628 17.9361V18.6304H80.6977V17.9361C79.3023 17.9361 78.4884 17.0104 78.4884 15.6218C78.4884 14.2332 79.3023 13.3074 80.6977 13.3074V12.8446H81.1628V13.3074C82.5581 13.3074 83.3721 14.1174 83.3721 15.6218C83.3721 17.0104 82.5581 17.9361 81.1628 17.9361ZM80.6977 13.6546C79.4186 13.6546 78.8372 14.4646 78.8372 15.6218C78.8372 16.7789 79.4186 17.4732 80.6977 17.4732V13.6546ZM81.1628 13.6546V17.4732C82.3256 17.4732 83.0233 16.6632 83.0233 15.6218C83.0233 14.4646 82.4419 13.6546 81.1628 13.6546Z" fill="white"/>
<path d="M87.5582 18.6304V12.8446H91.0465V13.1917H88.0233V15.506H90.6977V15.8532H88.0233V18.1675H91.0465V18.5147H87.5582V18.6304Z" fill="white"/>
<path d="M99.6512 20.1347V18.6304H95.4651V20.1347H95V18.1675H95.5814C96.1628 16.8946 96.2791 15.9689 96.2791 13.5389V12.8446H99.3023V18.2832H100V20.2504H99.6512V20.1347ZM98.9535 13.1917H96.7442V14.0017C96.7442 16.3161 96.5116 16.8946 96.0465 18.1675H98.9535V13.1917Z" fill="white"/>
<path d="M104.302 18.6304V12.8446H107.791V13.1917H104.767V15.506H107.442V15.8532H104.767V18.1675H107.791V18.5147H104.302V18.6304Z" fill="white"/>
<path d="M114.419 16.2003H112.674V18.6304H112.209V12.8446H114.302C115.349 12.8446 116.047 13.5389 116.047 14.4646C116.163 15.506 115.465 16.2003 114.419 16.2003ZM114.302 13.1917H112.674V15.7375H114.302C115.116 15.7375 115.698 15.2746 115.698 14.4646C115.698 13.6546 115.233 13.1917 114.302 13.1917Z" fill="white"/>
<path d="M123.256 18.6304L122.791 17.2418H120.116L119.651 18.6304H119.186L121.279 12.8446H121.628L123.721 18.6304H123.256ZM121.512 13.4231L120.349 16.7789H122.791L121.512 13.4231Z" fill="white"/>
<path d="M132.093 20.1347V18.6304H127.907V12.8446H128.372V18.2832H131.395V12.8446H131.86V18.2832H132.558V20.2504H132.093V20.1347Z" fill="white"/>
<path d="M140.349 18.6304V13.6546L137.209 18.6304H136.744V12.8446H137.209V17.8204L140.349 12.8446H140.814V18.6304H140.349Z" fill="white"/>
<path d="M148.372 18.6304V16.2003H146.744L145.349 18.6304H144.884L146.279 16.0846C145.465 15.9689 145 15.2746 145 14.4646C145 13.4231 145.698 12.8446 146.744 12.8446H148.837V18.6304H148.372ZM148.372 13.1917H146.744C145.93 13.1917 145.349 13.6546 145.349 14.4646C145.349 15.2746 145.814 15.7375 146.744 15.7375H148.372V13.1917Z" fill="white"/>
<path d="M83.9535 23.4905C86.3953 23.4905 88.2558 25.1105 88.2558 27.5406C88.2558 29.8549 86.5116 31.5907 83.9535 31.5907H81.5116V36.4508H78.9535V23.4905H83.9535ZM83.8372 29.2763C85 29.2763 85.6977 28.582 85.6977 27.5406C85.6977 26.4991 85 25.8048 83.8372 25.8048H81.5116V29.3921H83.8372V29.2763Z" fill="white"/>
<path d="M93.9535 34.2522C93.4884 35.4093 92.5582 36.4508 91.0465 36.4508H89.5349V34.2522H90.5814C91.2791 34.2522 91.7442 33.905 91.9768 33.4421L92.3256 32.5164L88.1396 23.6062H90.814L93.4884 29.8549L95.9302 23.6062H98.6047L93.9535 34.2522Z" fill="white"/>
<path d="M105.116 36.1036C104.535 36.3351 103.954 36.4508 103.256 36.4508C101.86 36.4508 100.581 35.9879 99.7675 35.0622C98.4884 33.7893 98.4884 32.0535 98.4884 29.8549V29.2763C98.4884 26.7306 98.7209 25.6891 99.7675 24.6477C100.698 23.7219 101.86 23.2591 103.256 23.2591C103.954 23.2591 104.651 23.3748 105.116 23.6062C105.698 23.8377 106.047 24.0691 106.744 24.7634L105.116 26.3834C104.419 25.6891 103.954 25.4577 103.256 25.4577C102.558 25.4577 101.977 25.6891 101.628 26.152C101.047 26.8463 101.047 28.2349 101.047 29.3921V30.0864C101.047 32.1693 101.163 32.8636 101.628 33.4421C101.977 33.905 102.558 34.1364 103.256 34.1364C104.07 34.1364 104.419 33.905 105.116 33.2107L106.744 34.8307C106.047 35.6408 105.698 35.8722 105.116 36.1036Z" fill="white"/>
<path d="M114.302 36.1036C113.721 36.3351 113.14 36.4508 112.442 36.4508C111.047 36.4508 109.767 35.9879 108.954 35.0622C107.674 33.7893 107.674 32.0535 107.674 29.8549V29.2763C107.674 26.7306 107.907 25.6891 108.954 24.6477C109.884 23.7219 111.047 23.2591 112.442 23.2591C113.14 23.2591 113.837 23.3748 114.302 23.6062C114.884 23.8377 115.233 24.0691 115.93 24.7634L114.302 26.3834C113.605 25.6891 113.14 25.4577 112.442 25.4577C111.744 25.4577 111.163 25.6891 110.814 26.152C110.233 26.8463 110.233 28.2349 110.233 29.3921V30.0864C110.233 32.1693 110.349 32.8636 110.814 33.4421C111.163 33.905 111.744 34.1364 112.442 34.1364C113.256 34.1364 113.605 33.905 114.302 33.2107L115.93 34.8307C115.233 35.6408 114.884 35.8722 114.302 36.1036Z" fill="white"/>
<path d="M124.651 36.3351L121.279 30.4335L119.651 32.4007V36.3351H117.093V23.4905H119.651V29.1606L124.186 23.4905H127.326L123.023 28.582L127.674 36.3351H124.651Z" fill="white"/>
<path d="M135.698 36.3351V28.0035L130.698 36.3351H128.488V23.4905H131.047V31.8221L136.047 23.4905H138.256V36.4508H135.698V36.3351Z" fill="white"/>
<path d="M146.977 36.3351L144.419 31.8221L141.977 36.3351H139.07L143.14 29.7392L139.419 23.4905H142.326L144.535 27.6563L146.86 23.4905H149.767L146.047 29.7392L150.116 36.3351H146.977Z" fill="white"/>
<path d="M78.9535 54.734V41.7737H81.5116V52.4197H85.2326V41.7737H87.7907V52.4197H91.5116V41.7737H94.0698V54.734H78.9535Z" fill="white"/>
<path d="M103.605 54.734L102.791 52.4197H98.1396L97.3256 54.734H94.6512L99.4186 41.7737H101.395L106.163 54.734H103.605ZM100.465 45.5924L98.8372 50.3368H102.093L100.465 45.5924Z" fill="white"/>
<path d="M114.186 54.7346L111.628 50.2216L109.186 54.7346H106.279L110.349 48.1387L106.628 41.89H109.535L111.744 46.0558L114.07 41.89H116.977L113.256 48.1387L117.326 54.7346H114.186Z" fill="white"/>
<path d="M127.442 54.734V47.2124L125 52.0725H123.256L120.814 47.2124V54.734H118.256V41.7737H120.698L124.07 48.7168L127.442 41.7737H129.884V54.734H127.442Z" fill="white"/>
<path d="M139.651 54.734L138.837 52.4197H134.186L133.372 54.734H130.698L135.465 41.7737H137.442L142.209 54.734H139.651ZM136.628 45.5924L135 50.3368H138.256L136.628 45.5924Z" fill="white"/>
<path d="M146.512 43.9724V54.6183H143.953V43.9724H140.581V41.7737H149.884V43.9724H146.512Z" fill="white"/>
</g>
<defs>
<clipPath id="clip0">
<rect width="150" height="67" fill="white"/>
</clipPath>
</defs>
</svg>
