<svg width="150" height="67" viewBox="0 0 150 67" fill="none" xmlns="http://www.w3.org/2000/svg">
<g clip-path="url(#clip0)">
<path d="M33.8372 67L10 57.2798L0 33.6736L9.76744 9.95164L33.4884 0L57.3256 9.72021L67.3256 33.3264L57.5581 57.0484L33.8372 67Z" fill="#FFFEF2"/>
<path d="M33.8372 67L10 57.2798L0 33.6736L9.76744 9.95164L33.4884 0L57.3256 9.72021L67.3256 33.3264L57.5581 57.0484L33.8372 67ZM12.2093 55.0812L33.8372 63.8756L55.3488 54.8497L64.1861 33.3264L55.1163 11.9188L33.4884 3.12435L11.9767 12.1503L3.13954 33.6736L12.2093 55.0812Z" fill="#5A2F28"/>
<path d="M32.5583 57.8584C19.0699 57.2798 8.60479 45.8238 9.18618 32.4007C9.76758 18.9775 21.2792 8.56304 34.7676 9.14162C48.256 9.72021 58.7211 21.1762 58.1397 34.5993C57.5583 48.0224 46.0466 58.437 32.5583 57.8584ZM34.6513 12.0345C22.7908 11.5717 12.6746 20.7133 12.0932 32.5164C11.628 44.3195 20.8141 54.3869 32.6746 54.9655C44.535 55.4283 54.6513 46.2867 55.2327 34.4836C55.6978 22.6805 46.5118 12.6131 34.6513 12.0345Z" fill="#5A2F28"/>
<path d="M40.3486 20.1347H46.9765L36.6277 50.4525H30.5812L20.3486 20.1347H27.2091L33.7207 43.1623L40.3486 20.1347Z" fill="#5A2F28"/>
<path d="M81.1627 17.9361V18.6304H80.6976V17.9361C79.3022 17.9361 78.4883 17.0104 78.4883 15.6218C78.4883 14.2332 79.3022 13.3074 80.6976 13.3074V12.8446H81.1627V13.3074C82.558 13.3074 83.372 14.1174 83.372 15.6218C83.372 17.0104 82.558 17.9361 81.1627 17.9361ZM80.6976 13.6546C79.4185 13.6546 78.8371 14.4646 78.8371 15.6218C78.8371 16.7789 79.4185 17.4732 80.6976 17.4732V13.6546ZM81.1627 13.6546V17.4732C82.3255 17.4732 83.0232 16.6632 83.0232 15.6218C83.0232 14.4646 82.4418 13.6546 81.1627 13.6546Z" fill="black"/>
<path d="M87.5581 18.6304V12.8446H91.0465V13.1917H88.0232V15.506H90.6976V15.8532H88.0232V18.1675H91.0465V18.5147H87.5581V18.6304Z" fill="black"/>
<path d="M99.6512 20.1347V18.6304H95.4651V20.1347H95V18.1675H95.5814C96.1628 16.8946 96.2791 15.9689 96.2791 13.5389V12.8446H99.3023V18.2832H100V20.2504H99.6512V20.1347ZM98.9535 13.1917H96.7442V14.0017C96.7442 16.3161 96.5116 16.8946 96.0465 18.1675H98.9535V13.1917Z" fill="black"/>
<path d="M104.302 18.6304V12.8446H107.791V13.1917H104.767V15.506H107.442V15.8532H104.767V18.1675H107.791V18.5147H104.302V18.6304Z" fill="black"/>
<path d="M114.418 16.2003H112.674V18.6304H112.209V12.8446H114.302C115.349 12.8446 116.046 13.5389 116.046 14.4646C116.162 15.506 115.465 16.2003 114.418 16.2003ZM114.302 13.1917H112.674V15.7375H114.302C115.116 15.7375 115.697 15.2746 115.697 14.4646C115.697 13.6546 115.232 13.1917 114.302 13.1917Z" fill="black"/>
<path d="M123.256 18.6304L122.791 17.2418H120.116L119.651 18.6304H119.186L121.279 12.8446H121.628L123.721 18.6304H123.256ZM121.512 13.4231L120.349 16.7789H122.791L121.512 13.4231Z" fill="black"/>
<path d="M132.093 20.1347V18.6304H127.907V12.8446H128.372V18.2832H131.395V12.8446H131.86V18.2832H132.558V20.2504H132.093V20.1347Z" fill="black"/>
<path d="M140.349 18.6304V13.6546L137.209 18.6304H136.744V12.8446H137.209V17.8204L140.349 12.8446H140.814V18.6304H140.349Z" fill="black"/>
<path d="M148.372 18.6304V16.2003H146.744L145.349 18.6304H144.884L146.279 16.0846C145.465 15.9689 145 15.2746 145 14.4646C145 13.4231 145.698 12.8446 146.744 12.8446H148.837V18.6304H148.372ZM148.372 13.1917H146.744C145.93 13.1917 145.349 13.6546 145.349 14.4646C145.349 15.2746 145.814 15.7375 146.744 15.7375H148.372V13.1917Z" fill="black"/>
<path d="M83.9536 23.4905C86.3955 23.4905 88.2559 25.1105 88.2559 27.5406C88.2559 29.8549 86.5118 31.5907 83.9536 31.5907H81.5118V36.4508H78.9536V23.4905H83.9536ZM83.8373 29.2763C85.0001 29.2763 85.6978 28.582 85.6978 27.5406C85.6978 26.4991 85.0001 25.8048 83.8373 25.8048H81.5118V29.3921H83.8373V29.2763Z" fill="black"/>
<path d="M93.9536 34.2522C93.4885 35.4093 92.5583 36.4508 91.0466 36.4508H89.535V34.2522H90.5815C91.2792 34.2522 91.7443 33.905 91.9769 33.4421L92.3257 32.5164L88.1396 23.6062H90.8141L93.4885 29.8549L95.9303 23.6062H98.6048L93.9536 34.2522Z" fill="black"/>
<path d="M105.116 36.1036C104.535 36.3351 103.953 36.4508 103.256 36.4508C101.86 36.4508 100.581 35.9879 99.7674 35.0622C98.4883 33.7893 98.4883 32.0535 98.4883 29.8549V29.2763C98.4883 26.7306 98.7208 25.6891 99.7674 24.6477C100.698 23.7219 101.86 23.2591 103.256 23.2591C103.953 23.2591 104.651 23.3748 105.116 23.6062C105.698 23.8377 106.046 24.0691 106.744 24.7634L105.116 26.3834C104.419 25.6891 103.953 25.4577 103.256 25.4577C102.558 25.4577 101.977 25.6891 101.628 26.152C101.046 26.8463 101.046 28.2349 101.046 29.3921V30.0864C101.046 32.1693 101.163 32.8636 101.628 33.4421C101.977 33.905 102.558 34.1364 103.256 34.1364C104.07 34.1364 104.419 33.905 105.116 33.2107L106.744 34.8307C106.046 35.6408 105.698 35.8722 105.116 36.1036Z" fill="black"/>
<path d="M114.303 36.1036C113.721 36.3351 113.14 36.4508 112.442 36.4508C111.047 36.4508 109.768 35.9879 108.954 35.0622C107.675 33.7893 107.675 32.0535 107.675 29.8549V29.2763C107.675 26.7306 107.907 25.6891 108.954 24.6477C109.884 23.7219 111.047 23.2591 112.442 23.2591C113.14 23.2591 113.838 23.3748 114.303 23.6062C114.884 23.8377 115.233 24.0691 115.931 24.7634L114.303 26.3834C113.605 25.6891 113.14 25.4577 112.442 25.4577C111.745 25.4577 111.163 25.6891 110.814 26.152C110.233 26.8463 110.233 28.2349 110.233 29.3921V30.0864C110.233 32.1693 110.349 32.8636 110.814 33.4421C111.163 33.905 111.745 34.1364 112.442 34.1364C113.256 34.1364 113.605 33.905 114.303 33.2107L115.931 34.8307C115.233 35.6408 114.884 35.8722 114.303 36.1036Z" fill="black"/>
<path d="M124.651 36.3351L121.279 30.4335L119.651 32.4007V36.3351H117.093V23.4905H119.651V29.1606L124.186 23.4905H127.326L123.023 28.582L127.675 36.3351H124.651Z" fill="black"/>
<path d="M135.698 36.3351V28.0035L130.698 36.3351H128.488V23.4905H131.046V31.8221L136.046 23.4905H138.256V36.4508H135.698V36.3351Z" fill="black"/>
<path d="M146.977 36.3351L144.419 31.8221L141.977 36.3351H139.07L143.14 29.7392L139.419 23.4905H142.326L144.535 27.6563L146.861 23.4905H149.768L146.047 29.7392L150.116 36.3351H146.977Z" fill="black"/>
<path d="M78.9536 54.734V41.7737H81.5118V52.4197H85.2327V41.7737H87.7908V52.4197H91.5118V41.7737H94.0699V54.734H78.9536Z" fill="black"/>
<path d="M103.605 54.734L102.791 52.4197H98.1397L97.3258 54.734H94.6514L99.4188 41.7737H101.396L106.163 54.734H103.605ZM100.465 45.5924L98.8374 50.3368H102.093L100.465 45.5924Z" fill="black"/>
<path d="M114.186 54.7346L111.628 50.2216L109.186 54.7346H106.279L110.349 48.1387L106.628 41.89H109.535L111.744 46.0558L114.07 41.89H116.977L113.256 48.1387L117.326 54.7346H114.186Z" fill="black"/>
<path d="M127.442 54.734V47.2124L125 52.0725H123.256L120.814 47.2124V54.734H118.256V41.7737H120.698L124.07 48.7168L127.442 41.7737H129.884V54.734H127.442Z" fill="black"/>
<path d="M139.651 54.734L138.837 52.4197H134.186L133.372 54.734H130.698L135.465 41.7737H137.442L142.209 54.734H139.651ZM136.628 45.5924L135 50.3368H138.256L136.628 45.5924Z" fill="black"/>
<path d="M146.512 43.9724V54.6183H143.954V43.9724H140.582V41.7737H149.884V43.9724H146.512Z" fill="black"/>
</g>
<defs>
<clipPath id="clip0">
<rect width="150" height="67" fill="white"/>
</clipPath>
</defs>
</svg>
