<svg width="26" height="25" viewBox="0 0 26 25" fill="none" xmlns="http://www.w3.org/2000/svg">
<g clip-path="url(#clip0)">
<path d="M24.9792 6.77824C24.8376 6.27328 24.5619 5.8161 24.1813 5.45533C23.7899 5.08346 23.3102 4.81745 22.7875 4.68241C20.8313 4.16679 12.9938 4.16679 12.9938 4.16679C9.72642 4.12961 6.45985 4.29311 3.21253 4.65637C2.68981 4.80138 2.21104 5.07334 1.81878 5.44804C1.43337 5.81887 1.1542 6.27616 1.00837 6.7772C0.658046 8.66444 0.487837 10.5807 0.500033 12.5001C0.487533 14.4178 0.657324 16.3335 1.00837 18.223C1.15107 18.722 1.4292 19.1772 1.81566 19.5449C2.20212 19.9126 2.68337 20.1782 3.21253 20.3189C5.19482 20.8335 12.9938 20.8335 12.9938 20.8335C16.2653 20.8707 19.536 20.7072 22.7875 20.3439C23.3102 20.2088 23.7899 19.9428 24.1813 19.571C24.5667 19.2032 24.8407 18.746 24.9782 18.248C25.3376 16.3615 25.5124 14.4445 25.5 12.5241C25.5271 10.5955 25.3525 8.66946 24.9792 6.7772V6.77824ZM10.5021 16.0668V8.93449L17.0229 12.5012L10.5021 16.0668Z" fill="#E2131E"/>
</g>
<defs>
<clipPath id="clip0">
<rect width="25" height="25" fill="white" transform="translate(0.5)"/>
</clipPath>
</defs>
</svg>
