<svg width="50" height="50" viewBox="0 0 50 50" fill="none" xmlns="http://www.w3.org/2000/svg">
<path d="M44.9563 14.2817C45.248 13.313 44.9563 12.6025 43.5772 12.6025H39.0084C37.8459 12.6025 37.3147 13.2171 37.023 13.8921C37.023 13.8921 34.7001 19.5567 31.4084 23.2296C30.3459 24.2984 29.8605 24.6359 29.2813 24.6359C28.9917 24.6359 28.5709 24.2984 28.5709 23.3296V14.2817C28.5709 13.1192 28.2355 12.6025 27.2667 12.6025H20.0876C19.3626 12.6025 18.9251 13.14 18.9251 13.6525C18.9251 14.7525 20.5709 15.0067 20.7397 18.1067V24.8317C20.7397 26.3046 20.4751 26.5734 19.8917 26.5734C18.3438 26.5734 14.5772 20.888 12.3417 14.3796C11.9063 13.115 11.4667 12.6046 10.3001 12.6046H5.73341C4.42716 12.6046 4.16675 13.2192 4.16675 13.8942C4.16675 15.1067 5.71466 21.1067 11.3772 29.0421C15.1522 34.4609 20.4667 37.3984 25.3084 37.3984C28.2105 37.3984 28.5688 36.7463 28.5688 35.6213V31.5255C28.5688 30.2213 28.8459 29.9588 29.7647 29.9588C30.4397 29.9588 31.6022 30.3005 34.3126 32.9109C37.4084 36.0067 37.9209 37.3963 39.6605 37.3963H44.2272C45.5313 37.3963 46.1834 36.7442 45.8084 35.4567C45.398 34.1755 43.9188 32.3109 41.9563 30.1046C40.8897 28.8463 39.2959 27.4921 38.8105 26.815C38.1334 25.9421 38.3292 25.5567 38.8105 24.7817C38.8126 24.7838 44.3772 16.9463 44.9563 14.2817Z" fill="#2683ED"/>
</svg>
