<svg width="26" height="25" viewBox="0 0 26 25" fill="none" xmlns="http://www.w3.org/2000/svg">
<g clip-path="url(#clip0)">
<path d="M25.1282 5.14256C24.2584 5.52798 23.324 5.7884 22.3417 5.90611C23.3552 5.29964 24.1135 4.34513 24.475 3.22069C23.5228 3.7863 22.4806 4.18443 21.3938 4.39777C20.6629 3.61742 19.6949 3.1002 18.64 2.92639C17.585 2.75259 16.5022 2.93193 15.5597 3.43658C14.6171 3.94123 13.8675 4.74294 13.4273 5.71726C12.987 6.69157 12.8808 7.78397 13.125 8.82486C11.1955 8.72798 9.30798 8.22647 7.58485 7.35288C5.86172 6.47929 4.34153 5.25315 3.12295 3.75402C2.70628 4.47277 2.4667 5.30611 2.4667 6.19361C2.46623 6.99256 2.66298 7.77928 3.03949 8.48395C3.416 9.18863 3.96062 9.78948 4.62503 10.2332C3.85449 10.2087 3.10094 10.0005 2.42712 9.6259V9.6884C2.42704 10.809 2.81465 11.895 3.52418 12.7624C4.23371 13.6297 5.22146 14.2248 6.31982 14.4467C5.60502 14.6402 4.85559 14.6687 4.12816 14.5301C4.43805 15.4942 5.04169 16.3374 5.85458 16.9414C6.66747 17.5455 7.6489 17.8803 8.66149 17.8988C6.94257 19.2482 4.81971 19.9802 2.63441 19.9769C2.2473 19.977 1.86053 19.9544 1.47607 19.9092C3.69428 21.3355 6.27643 22.0924 8.91357 22.0894C17.8407 22.0894 22.7209 14.6957 22.7209 8.28319C22.7209 8.07486 22.7157 7.86444 22.7063 7.65611C23.6555 6.96962 24.4749 6.11954 25.1261 5.14569L25.1282 5.14256Z" fill="#32AADC"/>
</g>
<defs>
<clipPath id="clip0">
<rect width="25" height="25" fill="white" transform="translate(0.5)"/>
</clipPath>
</defs>
</svg>
